<svg xmlns="http://www.w3.org/2000/svg" xmlns:xlink="http://www.w3.org/1999/xlink" viewBox="0 0 454.51 105"><defs><style>.cls-1{fill:none;}.cls-2{isolation:isolate;}.cls-3{fill:#202826;}.cls-4{fill:#ff881b;}.cls-5{mix-blend-mode:multiply;}.cls-6{clip-path:url(#clip-path);}.cls-7{clip-path:url(#clip-path-2);}.cls-8{fill:#95e54f;}.cls-9{fill:#e4f9c2;}.cls-10{fill:#9ce85c;}.cls-11{fill:#a8eb6c;}.cls-12{fill:#a2eb62;}.cls-13{fill:#8ee041;}.cls-14{fill:#7fd826;}.cls-15{fill:#8cdf3e;}.cls-16{fill:#82db38;}.cls-17{fill:#8fdf3a;}.cls-18{fill:#d4f5a1;}.cls-19{fill:#edfad7;}.cls-20{fill:#dbf6ae;}.cls-21{fill:#e8facc;}.cls-22{fill:#8fe349;}.cls-23{fill:#88de3e;}.cls-24{fill:#9ee861;}.cls-25{fill:#95e654;}.cls-26{fill:#88df43;}.cls-27{fill:#effadd;}.cls-28{fill:#eefad9;}.cls-29{fill:#8adf42;}.cls-30{fill:#eafacf;}.cls-31{fill:#99e755;}.cls-32{fill:#eafad0;}.cls-33{fill:#e3f8bf;}.cls-34{fill:#adee6f;}.cls-35{fill:#c7f394;}.cls-36{fill:#caf499;}.cls-37{fill:#aaed6b;}.cls-38{fill:#a1ec61;}.cls-39{fill:#cff49c;}.cls-40{fill:#a3eb63;}.cls-41{fill:#81d826;}.cls-42{fill:#72cf18;}.cls-43{fill:#78d217;}.cls-44{fill:#8edf39;}.cls-45{fill:#85db2e;}.cls-46{fill:#b9f07b;}.cls-47{fill:#c2f288;}.cls-48{fill:#cbf494;}.cls-49{fill:#d4f5a2;}.cls-50{fill:#dbf6af;}.cls-51{fill:#d5f5a6;}.cls-52{fill:#74d41c;}.cls-53{fill:#82db34;}.cls-54{fill:#7dd929;}.cls-55{fill:#84da31;}.cls-56{fill:#e9facd;}.cls-57{fill:#74d319;}.cls-58{fill:#ddf7b3;}.cls-59{fill:#96e752;}.cls-60{fill:#8ce241;}.cls-61{fill:#bdf183;}.cls-62{fill:#9ae855;}.cls-63{fill:#9ce859;}.cls-64{fill:#8ddf3c;}.cls-65{fill:#74cd15;}.cls-66{fill:#83dc31;}.cls-67{fill:#8bde3b;}.cls-68{fill:#aded6a;}.cls-69{fill:#c5f28b;}.cls-70{fill:#b2ee70;}.cls-71{fill:#acec68;}.cls-72{fill:#82de33;}.cls-73{fill:#7cd92e;}.cls-74{fill:#84dc36;}.cls-75{fill:#84db34;}.cls-76{fill:#8ce03f;}.cls-77{fill:#89df3b;}.cls-78{fill:#d5f5a2;}.cls-79{fill:#d5f5a3;}.cls-80{fill:#e9f9cd;}.cls-81{fill:#c7f38d;}.cls-82{fill:#93e44a;}.cls-83{fill:#8ee347;}.cls-84{fill:#82dd34;}.cls-85{fill:#79d92b;}.cls-86{fill:#a0eb5d;}.cls-87{fill:#9be754;}.cls-88{fill:#9ee752;}.cls-89{fill:#96e347;}.cls-90{fill:#94e246;}.cls-91{fill:#93e346;}.cls-92{fill:#94e444;}.cls-93{fill:#83db2c;}.cls-94{fill:#89de3a;}.cls-95{fill:#7cd828;}.cls-96{fill:#a2ea5a;}.cls-97{fill:#baf07c;}.cls-98{fill:#a3e95d;}.cls-99{fill:#a9eb62;}.cls-100{fill:#93e449;}.cls-101{fill:#80da2b;}.cls-102{fill:#94e44c;}.cls-103{fill:#72d21a;}.cls-104{fill:#a8eb60;}.cls-105{fill:#b2ee6f;}</style><clipPath id="clip-path"><path class="cls-1" d="M68.93,4a1.69,1.69,0,0,0-.66,2.12C69.53,9.85,65.34,16,62,17.86a.78.78,0,0,1-.61.08,9.62,9.62,0,0,0,.77-.72c1-1.13,2-2.23,2.9-3.43A5.62,5.62,0,0,0,65.62,12l-.33-.09L63.66,13.5a7.72,7.72,0,0,1-5.46,2.28c-1.44,0-2.86-.1-4.29-.17-3.63-.17-5.44,1-6.9,4.52a1.29,1.29,0,0,0,.33,1.74,11.61,11.61,0,0,0,10.32,2.31c6.16-1.31,11.66-7.06,12.56-13.13A11.24,11.24,0,0,0,68.93,4Z"/></clipPath><clipPath id="clip-path-2"><ellipse class="cls-1" cx="56.4" cy="17.89" rx="19.62" ry="19.69" transform="translate(5.34 47.79) rotate(-47.95)"/></clipPath></defs><title>logo-redalco</title><g class="cls-2"><g id="Capa_1" data-name="Capa 1"><path class="cls-3" d="M99.23,24.24a1,1,0,0,1,1-1h19.13c9.41,0,17.2,7.1,17.2,16.51,0,7.79-5.4,14-12.73,16.12l11.26,20c.39.62.23,1.39-.54,1.39h-2.39a1.09,1.09,0,0,1-1.08-.69L119.9,56.33c-1,.08-1.85.08-2.85.08H102.85V76.23c0,.54-.46,1-1.23,1h-1.39a1,1,0,0,1-1-1Zm20,28.92a13.48,13.48,0,0,0,13.65-13.42c0-7.33-6.25-13-13.73-13h-16.2V53.17Z"/><path class="cls-3" d="M149.37,24.24a1,1,0,0,1,1-1H181.3a1,1,0,0,1,1,1v1.31a1,1,0,0,1-1,1H153.07V47.84h24.45a1,1,0,0,1,1,1v1.31a1,1,0,0,1-1,1H153.07V74H181.3a1,1,0,0,1,1,1v1.23a1,1,0,0,1-1,1H150.37a1,1,0,0,1-1-1Z"/><path class="cls-3" d="M195.49,24.24a1,1,0,0,1,.93-1h16.35a27,27,0,1,1,0,54H196.42a1,1,0,0,1-.93-1Zm16.66,49.67c13.5,0,23.91-10.26,23.91-23.76,0-13.34-10.41-23.6-23.91-23.6h-13V73.91Z"/><path class="cls-3" d="M244.4,76.31l23.76-53.68a1.07,1.07,0,0,1,.93-.54h.23a1,1,0,0,1,1,.54l23.53,53.68c.15.46.15.93-.69.93h-2a1.25,1.25,0,0,1-1.08-.69l-6.25-14.19H254.34l-6.17,14.19a1.25,1.25,0,0,1-1.08.69h-2.16C244.4,77.23,244.16,76.92,244.4,76.31Zm38.1-17L269.31,28.25h-.15L255.73,59.34Z"/><path class="cls-3" d="M302.48,24.24a1,1,0,0,1,1-1h1.7a1,1,0,0,1,.93,1V74h24.61c.93,0,1,.46,1,1v1.39a.9.9,0,0,1-1,.85H303.48a1,1,0,0,1-1-1Z"/><path class="cls-3" d="M363.41,22.47a26.43,26.43,0,0,1,18.74,7.17,1,1,0,0,1,.08,1.39L381,32.34c-.46.46-.85.39-1.31-.08a24.21,24.21,0,1,0-16.28,42.27c6.63,0,11.65-2.62,16.28-6.48a1,1,0,0,1,1.23-.15l1.31,1.31a.89.89,0,0,1,0,1.31A26.65,26.65,0,0,1,363.41,78a27.77,27.77,0,1,1,0-55.53Z"/><path class="cls-3" d="M418.41,22.47a27.77,27.77,0,1,1-27.77,27.84A27.73,27.73,0,0,1,418.41,22.47Zm0,52.14A24.37,24.37,0,1,0,394,50.31,24.33,24.33,0,0,0,418.41,74.61Z"/><path class="cls-3" d="M99.08,86.27a.4.4,0,0,1,.4-.4h5.45a4.53,4.53,0,0,1,4.59,4.49,4.7,4.7,0,0,1-3.12,4.3l2.88,5.35a.4.4,0,0,1-.36.61h-1.07a.36.36,0,0,1-.34-.19l-2.8-5.58h-4v5.37a.41.41,0,0,1-.4.4h-.82a.4.4,0,0,1-.4-.4Zm5.75,7.18a3,3,0,1,0,0-6h-4.09v6Z"/><path class="cls-3" d="M113,86.27a.4.4,0,0,1,.4-.4h8.3a.4.4,0,0,1,.4.4v.61a.4.4,0,0,1-.4.4h-7.08v5.14h6a.41.41,0,0,1,.4.4v.61a.4.4,0,0,1-.4.4h-6V99.2h7.08a.4.4,0,0,1,.4.4v.61a.4.4,0,0,1-.4.4h-8.3a.4.4,0,0,1-.4-.4Z"/><path class="cls-3" d="M125.46,86.27a.4.4,0,0,1,.38-.4h4.72a7.37,7.37,0,1,1,0,14.74h-4.72a.4.4,0,0,1-.38-.4Zm4.76,12.89a5.93,5.93,0,1,0,0-11.86h-3.16V99.15Z"/><path class="cls-3" d="M145.87,86.27a.4.4,0,0,1,.38-.4H151a7.37,7.37,0,1,1,0,14.74h-4.72a.4.4,0,0,1-.38-.4Zm4.76,12.89a5.93,5.93,0,1,0,0-11.86h-3.16V99.15Z"/><path class="cls-3" d="M161.6,86.27a.4.4,0,0,1,.4-.4h8.3a.4.4,0,0,1,.4.4v.61a.4.4,0,0,1-.4.4h-7.08v5.14h6a.41.41,0,0,1,.4.4v.61a.4.4,0,0,1-.4.4h-6V99.2h7.08a.4.4,0,0,1,.4.4v.61a.4.4,0,0,1-.4.4H162a.4.4,0,0,1-.4-.4Z"/><path class="cls-3" d="M176.72,100.06l6.4-14.17a.38.38,0,0,1,.36-.23h.21a.38.38,0,0,1,.36.23l6.36,14.17a.37.37,0,0,1-.36.55h-.84a.39.39,0,0,1-.36-.23l-1.56-3.47h-7.48l-1.54,3.47a.39.39,0,0,1-.36.23h-.84A.37.37,0,0,1,176.72,100.06Zm10-4.46c-1-2.3-2-4.61-3.07-6.91h-.17l-3.07,6.91Z"/><path class="cls-3" d="M192.7,86.27a.4.4,0,0,1,.4-.4h.82a.41.41,0,0,1,.4.4V99.2h6.06a.4.4,0,0,1,.4.4v.61a.4.4,0,0,1-.4.4H193.1a.4.4,0,0,1-.4-.4Z"/><path class="cls-3" d="M203,86.27a.41.41,0,0,1,.4-.4h.84a.41.41,0,0,1,.4.4v13.94a.41.41,0,0,1-.4.4h-.84a.41.41,0,0,1-.4-.4Z"/><path class="cls-3" d="M210.65,86a.4.4,0,0,1,.38-.29h.34a.4.4,0,0,1,.36.23l4.17,11.6H216l4.11-11.6a.4.4,0,0,1,.36-.23h.34a.4.4,0,0,1,.38.29l2.72,14.15c.06.29-.06.51-.38.51h-.84a.43.43,0,0,1-.38-.29l-1.87-10.84h-.08l-3.87,11.12a.43.43,0,0,1-.36.23h-.38a.43.43,0,0,1-.36-.23l-3.92-11.12h-.08l-1.83,10.84a.41.41,0,0,1-.38.29h-.84c-.32,0-.44-.21-.38-.51Z"/><path class="cls-3" d="M227.14,86.27a.4.4,0,0,1,.4-.4h8.3a.4.4,0,0,1,.4.4v.61a.4.4,0,0,1-.4.4h-7.08v5.14h6a.41.41,0,0,1,.4.4v.61a.4.4,0,0,1-.4.4h-6V99.2h7.08a.4.4,0,0,1,.4.4v.61a.4.4,0,0,1-.4.4h-8.3a.4.4,0,0,1-.4-.4Z"/><path class="cls-3" d="M239.6,86a.4.4,0,0,1,.4-.38h.53L250,97.49h0V86.27a.4.4,0,0,1,.4-.4h.74a.41.41,0,0,1,.4.4v14.17a.4.4,0,0,1-.4.38h-.38l-9.67-12.07h0v11.46a.4.4,0,0,1-.4.4H240a.41.41,0,0,1-.4-.4Z"/><path class="cls-3" d="M258,87.28h-3.66a.4.4,0,0,1-.4-.4v-.61a.4.4,0,0,1,.4-.4h8.93a.4.4,0,0,1,.4.4v.61a.4.4,0,0,1-.4.4h-3.66v12.93a.41.41,0,0,1-.4.4h-.8a.41.41,0,0,1-.4-.4Z"/><path class="cls-3" d="M272.2,85.66a7.58,7.58,0,1,1-7.56,7.6A7.57,7.57,0,0,1,272.2,85.66Zm0,13.69a6.11,6.11,0,1,0-6.09-6.09A6.12,6.12,0,0,0,272.2,99.34Z"/><path class="cls-3" d="M282.06,98.4l.32-.4c.21-.27.44-.44.74-.19a5.82,5.82,0,0,0,3.56,1.6,2.54,2.54,0,0,0,2.82-2.32c0-1.45-1.26-2.32-3.69-3.33s-3.71-2-3.71-4.36c0-1.43,1.14-3.75,4.49-3.75a6.89,6.89,0,0,1,3.6,1.07.47.47,0,0,1,.13.72l-.25.4a.48.48,0,0,1-.74.19,5.9,5.9,0,0,0-2.76-1c-2.23,0-2.91,1.43-2.91,2.32,0,1.41,1.07,2.23,2.84,3,2.84,1.16,4.67,2.23,4.67,4.67,0,2.19-2.09,3.79-4.55,3.79a6.86,6.86,0,0,1-4.44-1.71A.46.46,0,0,1,282.06,98.4Z"/><path class="cls-3" d="M305.43,85.66a7.41,7.41,0,0,1,5.1,2,.41.41,0,0,1,0,.59l-.57.57c-.17.21-.34.19-.55,0a6.38,6.38,0,0,0-4-1.58,6.06,6.06,0,0,0,0,12.11,6.13,6.13,0,0,0,4-1.58.4.4,0,0,1,.51-.06l.63.57a.4.4,0,0,1,0,.57,7.23,7.23,0,0,1-5.12,2,7.58,7.58,0,1,1,0-15.16Z"/><path class="cls-3" d="M320.22,85.66a7.58,7.58,0,1,1-7.56,7.6A7.57,7.57,0,0,1,320.22,85.66Zm0,13.69a6.11,6.11,0,1,0-6.09-6.09A6.12,6.12,0,0,0,320.22,99.34Z"/><path class="cls-3" d="M332.68,86a.4.4,0,0,1,.38-.29h.34a.4.4,0,0,1,.36.23l4.17,11.6H338l4.11-11.6a.4.4,0,0,1,.36-.23h.34a.41.41,0,0,1,.38.29l2.72,14.15c.06.29-.06.51-.38.51h-.84a.43.43,0,0,1-.38-.29l-1.87-10.84h-.08l-3.87,11.12a.43.43,0,0,1-.36.23h-.38a.43.43,0,0,1-.36-.23l-3.92-11.12h-.08l-1.83,10.84a.41.41,0,0,1-.38.29h-.84c-.32,0-.44-.21-.38-.51Z"/><path class="cls-3" d="M349.17,86.27a.4.4,0,0,1,.4-.4h4.65a4.7,4.7,0,1,1,0,9.39h-3.47v4.95a.41.41,0,0,1-.4.4h-.8a.4.4,0,0,1-.4-.4Zm4.95,7.43a3.22,3.22,0,0,0,3.2-3.22,3.11,3.11,0,0,0-3.2-3h-3.35V93.7Z"/><path class="cls-3" d="M359.07,100.06l6.4-14.17a.38.38,0,0,1,.36-.23H366a.38.38,0,0,1,.36.23l6.36,14.17a.37.37,0,0,1-.36.55h-.84a.39.39,0,0,1-.36-.23l-1.56-3.47h-7.48l-1.54,3.47a.39.39,0,0,1-.36.23h-.84A.37.37,0,0,1,359.07,100.06Zm10-4.46c-1-2.3-2-4.61-3.07-6.91h-.17l-3.07,6.91Z"/><path class="cls-3" d="M375.06,86.27a.4.4,0,0,1,.4-.4h5.45a4.53,4.53,0,0,1,4.59,4.49,4.7,4.7,0,0,1-3.12,4.3l2.88,5.35a.4.4,0,0,1-.36.61h-1.07a.36.36,0,0,1-.34-.19l-2.8-5.58h-4v5.37a.41.41,0,0,1-.4.4h-.82a.4.4,0,0,1-.4-.4Zm5.75,7.18a3,3,0,1,0,0-6h-4.09v6Z"/><path class="cls-3" d="M391.06,87.28H387.4a.4.4,0,0,1-.4-.4v-.61a.4.4,0,0,1,.4-.4h8.93a.4.4,0,0,1,.4.4v.61a.4.4,0,0,1-.4.4h-3.66v12.93a.41.41,0,0,1-.4.4h-.8a.41.41,0,0,1-.4-.4Z"/><path class="cls-3" d="M399,86.27a.41.41,0,0,1,.4-.4h.84a.41.41,0,0,1,.4.4v13.94a.41.41,0,0,1-.4.4h-.84a.41.41,0,0,1-.4-.4Z"/><path class="cls-3" d="M405,86.27a.4.4,0,0,1,.38-.4h4.72a7.37,7.37,0,1,1,0,14.74h-4.72a.4.4,0,0,1-.38-.4Zm4.76,12.89a5.93,5.93,0,1,0,0-11.86h-3.16V99.15Z"/><path class="cls-3" d="M427.2,85.66a7.58,7.58,0,1,1-7.56,7.6A7.57,7.57,0,0,1,427.2,85.66Zm0,13.69a6.11,6.11,0,1,0-6.09-6.09A6.12,6.12,0,0,0,427.2,99.34Z"/><path class="cls-3" d="M437.05,98.4l.32-.4c.21-.27.44-.44.74-.19a5.82,5.82,0,0,0,3.56,1.6,2.54,2.54,0,0,0,2.82-2.32c0-1.45-1.26-2.32-3.69-3.33s-3.71-2-3.71-4.36c0-1.43,1.14-3.75,4.49-3.75a6.89,6.89,0,0,1,3.6,1.07.47.47,0,0,1,.13.72l-.25.4a.48.48,0,0,1-.74.19,5.9,5.9,0,0,0-2.76-1c-2.23,0-2.91,1.43-2.91,2.32,0,1.41,1.07,2.23,2.84,3,2.84,1.16,4.67,2.23,4.67,4.67,0,2.19-2.08,3.79-4.55,3.79a6.86,6.86,0,0,1-4.44-1.71A.46.46,0,0,1,437.05,98.4Z"/><path class="cls-4" d="M81.63,61.92a35,35,0,0,0-1.94-11.5,2,2,0,0,0-4,.46,2.81,2.81,0,0,0-.06.6,5.75,5.75,0,0,0,.19.75l.28,1c.18.63.33,1.13.37.87.26,1.55.55,3.26.68,5a20.54,20.54,0,0,1-.14,5,16.59,16.59,0,0,1-.86,4.74L74.78,73.2c-.36.71-.32.22-.68.92-.25.51-.5,1-.69,1.44s-.39.89-.56,1.3-.32.81-.47,1.18l-.46,1.08c-.81,1.18-2,2.73-2.23,2.68a3.22,3.22,0,0,1,.44-.66c.19-.27.39-.53.48-.7,0-.43-.1-.45-.3-.23s-.48.7-.85,1.25a11,11,0,0,1-2.6,3c-.12.14.19,0-.14.27.7-.61,1.35-1.26,2-1.93.08.17-.57,1-1.37,1.87-.37.41-.78.81-1.15,1.16s-1,.78-1.48,1.14c0-.06.08-.25.16-.38s.09-.31-1.41.67a6.44,6.44,0,0,1-1.8,1.24c-.78.42-1.64.8-2.22,1.16l.19,0a8,8,0,0,1-.95.42,3.82,3.82,0,0,1-.65.19,2.1,2.1,0,0,1-.43,0,.28.28,0,0,1-.13,0l-.08,0c-.09-.06-.15-.14-.21-.19a.16.16,0,0,0-.11,0H57a.5.5,0,0,0,0-.1v.14c0,.06,0,0,0,0s0,0,0,0l-.06.05s-.09.07-.09,0-.05-.12-.07-.1,0,0,0,.11-.06.27.11.19.3.27.31.5v0l-.92.32L56,89.14a1.68,1.68,0,0,0-2.1-1.38c-.09,0-.14-.07-.12-.13a1.67,1.67,0,0,1,.5-.06,1.62,1.62,0,0,0,.3,0c-.07,0-.17-.05-.17-.08s.1-.07.45,0a2,2,0,0,0-1.42.1,2,2,0,0,0-.32.18l-.25.18-.49.36,0-.19a29.6,29.6,0,0,1-4.88,3.51c-.32.26-.65.56-1,.87l-.52.47-.13.12-.18.17a2.33,2.33,0,0,0-.3.39,2.43,2.43,0,0,0-.3,1.81,2.61,2.61,0,0,0,.65,1.23,2.41,2.41,0,0,0,.54.28l.31.09.26.05a15.2,15.2,0,0,1,2.58.79c.49.25,0,.14-.16.12,1.76.57,3.62,1.2,5.55,1.86a2.39,2.39,0,0,0,.79.17,1.74,1.74,0,0,0,.8-.18,1.77,1.77,0,0,0,1-1.25,1.94,1.94,0,0,0,0-.8l0-.16-.33-2.24a35,35,0,0,0,5.34-2.15,22.31,22.31,0,0,1-2.46,1.28c.36-.14.73-.27,1.09-.43-.69.4,0,.2.38.09.21-.05.35-.08.23,0l-.19.11c1.22-.56,2.64-1.2,3.88-1.89,1.67-.92,3-1.94,3.18-2.57l-.71.59c-.36.2-.86.49-1.25.72s-.72.37-.72.27c.38-.29.76-.59,1.12-.9a35.18,35.18,0,0,0,7-6.49l.3-.38c-.09.17-.11.26,0,.18a1.79,1.79,0,0,1-.5.47c-.67.89-1.39,1.75-2.14,2.57l.34-.2c.69-.39.89-1.09,1.41-1.53,0,.14.44-.27.91-.81l1.29-1.63c1.53-2.24,1.72-3,1.72-3.28a.29.29,0,0,0-.06-.17q.83-1.45,1.51-3A12.75,12.75,0,0,0,79.49,74c0-.14.09-.29.13-.43A35.22,35.22,0,0,0,81,68.5a5.82,5.82,0,0,0,.36-2.22c.08-.6.13-1.21.18-1.81,0,.16,0,.49.08.18q0-.81,0-1.62C81.62,62.66,81.63,62.29,81.63,61.92ZM50.48,90.27l-.74.59-1.15.92a18.6,18.6,0,0,1,1.95-1.57Z"/><path class="cls-4" d="M45,96a2.41,2.41,0,0,0,.76.8l-.15-.15,0,0A2.23,2.23,0,0,1,45,96Z"/><path class="cls-4" d="M61.27,94.35l-1.18.56A11.57,11.57,0,0,0,61.27,94.35Z"/><path class="cls-4" d="M45,96a2.45,2.45,0,0,1-.14-.26A2.15,2.15,0,0,0,45,96Z"/><path class="cls-4" d="M61.8,88.1c-.31.22-.43.37.6-.17.11-.23,1.8-1.38,1.63-1.51q-.41.3-.84.58c-.28.19-.56.38-.85.56C62.6,87.5,62.11,87.86,61.8,88.1Z"/><path class="cls-4" d="M53.71,100.53a3.79,3.79,0,0,0-.61-.14C53.71,100.64,53.61,100.54,53.71,100.53Z"/><path class="cls-4" d="M57.1,100.32a2.52,2.52,0,0,1-1.95.45,2.9,2.9,0,0,1-.48-.13l-.31-.11-.62-.22c-.41-.14-.83-.27-1.25-.38l1.28.61h0l.32.1.62.21a2.84,2.84,0,0,0,1.09.15,2.64,2.64,0,0,0,1.86-1,2.17,2.17,0,0,0,.51-1.52A2.48,2.48,0,0,1,57.1,100.32Z"/><path class="cls-4" d="M39.94,92.2a30.59,30.59,0,0,1-5-1.56,3.85,3.85,0,0,1-.51-.31L33.75,90l-.86-.44c-.56-.28-1-.51-.86-.3-1.26-.83-2.65-1.73-4-2.75a20.3,20.3,0,0,1-3.48-3.31,16,16,0,0,1-2.83-3.65c-.56-1-1.11-1.88-2.26-3.81-.28-.71,0-.37-.22-1.08-.79-2-1.66-3.4-2.27-4.71-.34-1.33-.79-3.12-.56-3.29.14.26.29,1.18.42,1.51.64.55.36-.27,0-1.47a10.28,10.28,0,0,1-.63-3.78c0-.17-.1.16-.12-.27,0,.44,0,.89.06,1.33s.07.88.12,1.33c-.09,0-.19-.28-.29-.68s-.18-.92-.25-1.48-.11-1-.15-1.53,0-1.21.07-1.82c.07,0,.14.21.2.35s.11.19.16,0a3.54,3.54,0,0,0,.09-.47l.11-.8a2,2,0,0,1,0-.7.35.35,0,0,1,0-.1l.1,0,.2.07.43.15,1.1.39a2.39,2.39,0,0,0,.68.15,1.66,1.66,0,0,0,.65-.1l-.2-.06a2.14,2.14,0,0,0,1-.5,2.7,2.7,0,0,0,.5-.57c.22-.34.33-.56.43-.75a1.55,1.55,0,0,0,.13-.31,2.22,2.22,0,0,0,.05-.38A4,4,0,0,0,21.08,55c.28,2.22-.44-1.48-.16.73,0,.64-.21.7-.42.78h0s0,0,0-.07l-.93-4.39-.25-1.2c0-.09.09-.13.15-.11a2.31,2.31,0,0,0,.14.69c0-.13,0-.38.17.19l-.4-2.31.18.06c-.19-.71-.32-1.3-.44-1.84A2.32,2.32,0,0,0,18,46a2.39,2.39,0,0,0-1.6-.32,2.44,2.44,0,0,0-.81.27l-.18.12-.16.11-.26.18a46.06,46.06,0,0,1-3.53,3.36,15.22,15.22,0,0,1-2.34,2.62c-.43.31-.13,0,0-.19l-.26.27a2.17,2.17,0,0,0-.28.36,2.1,2.1,0,0,0-.3.86,2.05,2.05,0,0,0,.57,1.66,1.87,1.87,0,0,0,.76.47c.27.09.51.14.77.22l1.43.39-.07.73-.07.82q-.06.84-.09,1.69c0,.06,0,.13,0,.19,0,.69-.07,1.38-.07,2.07a34.93,34.93,0,0,0,.43,5.42,25,25,0,0,1-.46-2.6c0,.37.06.74.09,1.12-.26-1.23-.14,1.37-.33.33.16,1.28.32,2.76.6,4.09.09.45.18.88.29,1.28a11.38,11.38,0,0,0,.34,1.09,2.87,2.87,0,0,0,.78,1.29c-.12-.27-.22-.55-.32-.82-.15-.78-.5-2.15-.32-2.09.15.4.3.79.46,1.18A35.14,35.14,0,0,0,17.15,81c-.13-.13-.2-.18-.17-.05a1.82,1.82,0,0,1-.28-.6c-.29-.45-.59-.89-.88-1.34s-.56-.91-.82-1.39c0,.12,0,.25.07.37.16.74.71,1.14,1,1.74-.14,0,.1.49.45,1.08s.82,1.27,1.08,1.68c1.57,2.08,2.21,2.49,2.46,2.58a.29.29,0,0,0,.18,0q1.07,1.21,2.23,2.31A11.84,11.84,0,0,0,24.21,89l.29.21a35.39,35.39,0,0,0,4.22,2.93,4.14,4.14,0,0,0,.78.56c.28.15.56.26.85.38l.26.1q.77.4,1.56.75c-.15,0-.46-.12-.19,0l1.4.5a34.62,34.62,0,0,0,5.69,1.76,2,2,0,1,0,.87-4ZM16.61,46.35a1.58,1.58,0,0,1,.86,0,1.62,1.62,0,0,1,.87.65l-.06,0a1.69,1.69,0,0,0-2.08-.44A1.31,1.31,0,0,1,16.61,46.35Z"/><path class="cls-4" d="M11.37,49.85l.12-.09c.17-.23.33-.44.48-.62Z"/><path class="cls-4" d="M11.21,66.19c-.06-.44-.11-.86-.17-1.24C11.11,65.58,11.17,66,11.21,66.19Z"/><path class="cls-4" d="M16.78,58.63c.13,0,.28,0-.36-.29,0,0,0,0,0,0a1.79,1.79,0,0,0,0,.18l0,.4c0,.06,0,.12,0,.17a.45.45,0,0,1,0,.09v.15c0,.18,0,.29.09.28l0-.6a1.74,1.74,0,0,1,0-.27c-.05,0-.09-.12,0-.13A.53.53,0,0,1,16.78,58.63Z"/><path class="cls-4" d="M10.71,56.86h0l-.07,0-.15,0-.61-.15-.31-.07-.08,0-.12,0-.24-.08c.38.18.53.23.75.32l.63.26h0l.16,0h.15a15,15,0,0,0,0,1.85c0-.48.07-.94.12-1.39l.07-.59-.18,0Z"/><path class="cls-4" d="M10.45,57a3.48,3.48,0,0,0-.59-.09C10.46,57.13,10.36,57,10.45,57Z"/><path class="cls-4" d="M46.47,31.53c.77.07.31.21,1.08.29,2.21.21,3.85.06,5.32.11,1.37.3,3.19.73,3.24,1-.3,0-1.21-.29-1.57-.33-.79.32.08.44,1.34.67.32.06.66.12,1,.2l1,.27a6,6,0,0,1,1.67.74c.17.05-.1-.16.3,0l-.61-.3-.62-.27-.62-.27-.63-.24c.06-.07.35,0,.75.05s.92.27,1.46.47,1,.4,1.48.6,1.06.59,1.58.9c0,.06-.26,0-.41,0s-.22,0-.08.14.5.37,1.21.87a2.92,2.92,0,0,1,.82.42l.48.34.21.16.17.15.34.29.16.14-.17.14a4.56,4.56,0,0,0-.57.56H65l-.2.18-.2.18-.36.3a3,3,0,0,0-.52.57c-.23.35-.33.57-.45.76a1.26,1.26,0,0,0-.17.74,1.23,1.23,0,0,0,.06.3,1.67,1.67,0,0,0,.15.37,2.22,2.22,0,0,0,.78.83,2.26,2.26,0,0,1-.6-.66c-.09-.15-.11-.22-.1-.22s.18.24.4.43a1.25,1.25,0,0,0,.48.31s0,0-.16-.16a2.54,2.54,0,0,1-.5-.63.82.82,0,0,1-.06-.76.48.48,0,0,1,.3-.19h0A1.67,1.67,0,0,0,65,42.36l3.84,1.32c.06.08.07.15,0,.18a2.39,2.39,0,0,0-.67-.24c.11.07.31.22-.26.05l2.23.86-.15.12a27.35,27.35,0,0,1,3.2,1.11,3.86,3.86,0,0,0,.37.13A2.56,2.56,0,0,0,74,46a2.37,2.37,0,0,0,.84-.08,2.46,2.46,0,0,0,1.41-1,2.4,2.4,0,0,0,.25-.89,2.44,2.44,0,0,0,0-.48l0-.24c0-.07,0-.11,0-.17l-.34-1.33a15.4,15.4,0,0,1-.43-2.25,15.79,15.79,0,0,1-1.07-3.42c0-.54.1-.09.18.07L74.48,35l-.14-.56a2.09,2.09,0,0,0-.28-.64A2,2,0,0,0,72.94,33a1.92,1.92,0,0,0-1.35.11,2.11,2.11,0,0,0-.29.17c-.08.07-.18.15-.25.22L70.6,34l-.88.84L69.5,35l-.11.11-.06,0-.06,0-.48-.36c-.3-.23-.63-.49-1-.71A34.7,34.7,0,0,0,61,30a23.4,23.4,0,0,1,2.57,1.12c-.33-.2-.65-.39-1-.56.72.28.17-.1-.16-.35-.16-.13-.27-.22-.13-.18l.21.08c-1.18-.59-2.53-1.28-3.82-1.8-1.72-.71-3.31-1.08-3.91-.83l.88.17c.74.32,2.11.76,2,.89-.46-.12-.92-.2-1.38-.3a35.26,35.26,0,0,0-9.67-1.35c.18,0,.26-.07.13-.11a2,2,0,0,1,.66.1l.82,0H49l.82,0,.82.05-.36-.14a2,2,0,0,0-.53-.13,3.89,3.89,0,0,0-.51,0,3.85,3.85,0,0,1-1,0c.08-.13-.48-.17-1.18-.2l-.54,0H46c-.36,0-.69,0-.94,0-2.64.19-3.35.51-3.56.67a.28.28,0,0,0-.09.15q-1.65.25-3.26.65c-.3,0-.6.1-.89.18-.47.13-.93.29-1.36.44l-.27.11a35.14,35.14,0,0,0-4.92,2.05,5.56,5.56,0,0,0-1.68.88l-.19.15q-.78.46-1.53,1c.11-.11.35-.32.08-.17-.4.3-.79.62-1.18.92a35.08,35.08,0,0,0-5.88,5.29,2,2,0,1,0,3.06,2.71,31,31,0,0,1,2.53-2.54,4.87,4.87,0,0,1,.55-.36c.46-.42,2.53-1.8,2-1.7,1.32-.78,2.78-1.63,4.3-2.38a20.26,20.26,0,0,1,4.6-1.66A19.38,19.38,0,0,1,40.11,32c.73-.1,1.3-.17,1.86-.2l.86-.05,1-.06L45,31.63ZM74.59,45.31a1.53,1.53,0,0,1-.87.08,9.21,9.21,0,0,1-1-.37h.08l.74.25A1.66,1.66,0,0,0,75,45.09,1.67,1.67,0,0,1,74.59,45.31Z"/><path class="cls-4" d="M62.5,30.06l1.14.55A10.86,10.86,0,0,0,62.5,30.06Z"/><path class="cls-4" d="M75.63,39.34s0,.11,0,.16c.11.27.21.51.29.74Z"/><path class="cls-4" d="M64.23,37.42c.14.06.4.22.45.23s.16.06.16,0,0,0-.06-.1l-.11-.11-.28-.23c-.25,0-1.92-1.1-2-.9.56.36,1.12.7,1.66,1.1C64,37.32,64.08,37.34,64.23,37.42Z"/><path class="cls-4" d="M71.64,32.06a1.76,1.76,0,0,0-.82.38c-.05.05,0,.07-.09.13l.29-.2A4,4,0,0,1,71.64,32.06Z"/><path class="cls-4" d="M69.11,34l.09.06.08.06,0,0,0,0,.53-.47.48-.43.24-.22.16-.14.19-.15a2.86,2.86,0,0,1,.91-.4,3,3,0,0,1,1-.05,2.73,2.73,0,0,0-2.16.38l0,0-.05,0-.17.14-.11.11c-.27.27-.6.57-.93.88l-.05.05h0l0,0,0,0s-.05.1-.08.07l-.11,0H69.1l-.19-.09.14.11Z"/><g class="cls-5"><g class="cls-6"><g class="cls-7"><path class="cls-8" d="M91.39,17.32q0,.13.09.12a1.73,1.73,0,0,1,.05.46,3.1,3.1,0,0,1,0,1.46,2,2,0,0,1-.89,1.13c-.42.26-.92.6-1.29.39s-.2-.84.12-1.36c-.49.07-.75.58-1.17.75-.58.27-.48-.62-1-.39a.84.84,0,0,1-.44,0,3.88,3.88,0,0,1-1.2-.59.85.85,0,0,1-.13-.47c.18-1.12,1.14-.72,1.72-1.08-.2-.46-.71-.34-1-.13-1.75,1.3-2.25-.72-3.63-.46-.32.06-.38-.65-.09-1,2-2.14.37-3.06-.39-4.28a1.25,1.25,0,0,1-.3-.69,1.94,1.94,0,0,1,.51-1.11.66.66,0,0,1,.56-.2,4.16,4.16,0,0,1,1.18.6c.88.75,1.42,1.85,2.52,2.39h0c1.73.87,2.45,2.78,4.12,3.71q0,.15.13.14A.6.6,0,0,0,91.39,17.32Z"/><path class="cls-9" d="M34.58,35.94l-.45-.47c-.05-.73-.74-.94-1.05-1.46a.5.5,0,0,1-.06-.47,1.41,1.41,0,0,1,.45-.38c1.34-.46.11-1.72,1.08-2.13,1.14-.48.83-1.32,1.2-2A1.68,1.68,0,0,1,37,28.59a6.14,6.14,0,0,1,1.53-.08,1.86,1.86,0,0,1,.45.13,13.23,13.23,0,0,1,1.13.73l.12.19a.71.71,0,0,1-.16.51.94.94,0,0,1-1.05.27c-1.27-.54-1.15.47-1.31,1.18a1.66,1.66,0,0,1-.11.58c-.2.63-1.09,1.62-.72,1.78,1,.43.86,1.94,2.26,1.93a2.55,2.55,0,0,1,2.33,1.06,2.18,2.18,0,0,1,.23.46A1.25,1.25,0,0,1,41,38.61a1.45,1.45,0,0,1-.86,0h0c-.31,0-.58-.13-.92,0a.54.54,0,0,1-.33-.25c-.21-.27-.36-.61-.8-.6h0a.55.55,0,0,1-.38-.08c-.18-.16-.32-.38-.65-.34h0c-.6,0-.55-.86-1.25-.69S35.19,35.91,34.58,35.94Z"/><path class="cls-10" d="M65.81-.22A.16.16,0,0,0,66-.1c.33,0,.49.23.8.24h0c.52-.13.59.48,1.06.43h0c.43-.06.57.27.78.49.29.53.47,1.14,1.36,1.08s1.25.54,1.63,1.11a1,1,0,0,1,.09.74,1.27,1.27,0,0,1-.39.46,3.38,3.38,0,0,1-.54.28,2.23,2.23,0,0,1-.55.13c-2-.13-3.67-1-5.63-1.24.07-1,1.32-1.25,1.54-2.11-.1-.16-.28-.16-.47-.17A.42.42,0,0,1,65.17,1a2.79,2.79,0,0,1,.25-1.17Q65.63-.38,65.81-.22Z"/><path class="cls-11" d="M82.67,10l-.29.27a3.6,3.6,0,0,1-1.28.14,2.87,2.87,0,0,1-.51,0,4,4,0,0,1-2.16-3.5.48.48,0,0,1,.46-.28h0c.38-.07.53.1.49.45l.25.23c.92.19,1,1.28,1.95,1.48h0A1.33,1.33,0,0,1,82.67,10Z"/><path class="cls-12" d="M92.79,18.81l.58.63a4.3,4.3,0,0,0,.34.77,1.06,1.06,0,0,1-.21.47,2.08,2.08,0,0,1-.43.35,3.11,3.11,0,0,1-.76.28.46.46,0,0,1-.42-.13c-.16-.55.36-1.15.34-1.71a1.81,1.81,0,0,1,.14-.51A.33.33,0,0,1,92.79,18.81Z"/><path class="cls-13" d="M86.59,22.44a1.2,1.2,0,0,1,.15-.52c.48-.5.83,0,1.25-.15-.15-.22-.45-.13-.66-.22a.57.57,0,0,1-.33-.26c-.12-.55.24-.74.72-.85l.43,0c0-.07,0-.14,0-.21.32-.93,1.26-1.24,1.9-1.86.05-.05.25,0,.34,0a.28.28,0,0,1,.09.45c-.21.28-.46.54-.7.8a1,1,0,0,0-.31.94c.76-.29,1.53-.53,1.85-1.47.58,0,.63.4.63.86s-.6,1,.14,1.22l.32-.29.56-.06.31-.27c.64,1-1.08,1.37-1.1,2.19a.27.27,0,0,1-.21.3c.26-.1.2-.35.34-.51.38-.58,1-1.24,1.45-.9"/><path class="cls-14" d="M85.64,18.87l.23.25c.74,2,.74,2-1.4,3.24-2,.56-2,.56-2.38-1.92.76-1.15-.61-.45-.58-.74.14.09.65,0,.66.5a4.82,4.82,0,0,1-1.76,2c-1,.45-1.11-.75-2-.51a1.27,1.27,0,0,1-.72-.15A1.85,1.85,0,0,1,77.68,20a2.3,2.3,0,0,1,2.09-1.41c-.48-.66.17-1.89-1.39-2-.89-.06-.89-1.23.41-2a2,2,0,0,0,1.66-.73c1.12,1.34,1.67,3.12,3.2,4.19A5.68,5.68,0,0,0,85.64,18.87Z"/><path class="cls-15" d="M85.64,18.87a1.52,1.52,0,0,1-1.47.41c-.52-.11-.87-.31-.79-.94a.44.44,0,0,0-.24-.4c-.93-.4-1.81-.84-1.91-2-.86-.31-.77-1.17-.81-2,.21-1.12,1.31-1.6,2-2.36.6.06.7.53.75,1s.31.54.71.62a.6.6,0,0,1,.32,1.08c-.58.63-.64,1.52-1.46,2-.07,0-.06.36,0,.52s.2.12.31.11a3.57,3.57,0,0,0,.58-.17c1.33-.43,1.33-.43.87,1.11.58-.23,1.09-.6,1.64-.77s1-.47,1.39-.12,1,.06.66.78a1.09,1.09,0,0,1-.67.5c-.31.12-.59.28-.88,0C86.14,17.89,85.89,18.43,85.64,18.87Z"/><path class="cls-16" d="M82.43,11.6c-.15.31-.33.62-.45.94a1.34,1.34,0,0,1-1.21,1,.39.39,0,0,0-.35.42c-.41.53-.84,1-1.52,1a.81.81,0,0,1-.65-.26c-.16-.84-.16-1.78-.93-2.27-.27-.5-.46-1.06-.77-1.53s-.06-1.18.57-1.7,1.31-.58,1.68,0a2,2,0,0,0,2.24,1h0c.6.07,1,.34,1,1Z"/><path class="cls-17" d="M84.57,22.23a5.63,5.63,0,0,1,.53-.66c.92-.85,1-.88.61-1.65a.58.58,0,0,1,.17-.8c.47.16,1.28-.14,1.26.7h0a3.45,3.45,0,0,1,.31-.28c.26-.18.59-.57.53.09a1.69,1.69,0,0,0,.18.63l.23.25-.91.25a.37.37,0,0,0-.29.42c-.22.26-.49.51-.41.84h0a1.83,1.83,0,0,1-1.87.86A.56.56,0,0,1,84.57,22.23Z"/><path class="cls-12" d="M91.72,20.19c-.09-.37-.09-.78-.39-1,0-.45-.28-.85,0-1.38L92.46,19l0,.16C92.34,19.54,92.75,20.22,91.72,20.19Z"/><path class="cls-15" d="M82,11.09l-1-1a1.05,1.05,0,0,1,1.34.15A1,1,0,0,1,82,11.09Z"/><path class="cls-18" d="M37.07,29l-1.11.1c-.84-.45-1.06-1.21-.68-2.27.8-.34,1.82-1.29,2.05.12.05.31.15.1.26,0,1.7-.78,2.64.22,3.81.69.26.18.23.66.7.64a1.73,1.73,0,0,1,.42.17c.65.3,1.19.74,1.84,1l.44.07a2.94,2.94,0,0,1,.42.06,7,7,0,0,1,.74.23.59.59,0,0,1,.27.2c.06.11.17.12.31,0l.41-.16a2.2,2.2,0,0,1,.65-.16.51.51,0,0,1,.29.19c.11.35.26-.08.4-.09a1.06,1.06,0,0,1,.48-.14c.66.22.74.77.61,1.45a3.08,3.08,0,0,1-1,1.22,2.46,2.46,0,0,1-2.47.44,2.5,2.5,0,0,1-.44-.21c-.53-.43-1.26-.17-1.95,0s-1.66.63-1.47-.68c.07-.5-.43-.62-.71-.87a3.52,3.52,0,0,1-.9-1.09c-.06-.24-.11-.48-.45-.44h0c-.61,0-.63-.75-1.26-.69h0A1.19,1.19,0,0,0,37.07,29Z"/><path class="cls-19" d="M41.7,30.68c.31.15.64.28.93.46s.39.52-.06.92a1.31,1.31,0,0,0-.2.33c.11,0,.24.08.34,0,.32-.14.62-.38,1-.31s.4.43.61.64A1.13,1.13,0,0,1,44.18,34l-.64.58a.57.57,0,0,1-.29.43c-.35.14-.65,0-1,.08l-.49.13c-.63.21-.4.59-.4.92h0c-.08.32.23.48.15.8h0q0,.22-.14.28t-.18,0c-.39-.93-1.5-.82-2.33-1s-1.5-.5-1.57-1.47c0-.41-.37-.35-.72-.26a3.31,3.31,0,0,1-.62,0l1.53-3.15c1.13-.8,2.15-.34,2.22,1a4.14,4.14,0,0,1-.72,2c.78-.2,1.12-.33.94-1C39.62,32.09,40.21,31.16,41.7,30.68Z"/><path class="cls-20" d="M35.2,27a4,4,0,0,1,.76,2.1,1.2,1.2,0,0,0,0,.9c.21.76.22.76-.77,1.07-.61.19-.82.5-.63,1,.08.21.24.38.31.59.14.41-.11.74-.62.81a5.35,5.35,0,0,1-.92,0,1.06,1.06,0,0,1-.9-1h0c.06-.39-.34-.49-.38-.81a11,11,0,0,1-.24-3.23A1.31,1.31,0,0,1,32,27.8,6,6,0,0,1,35,26.86Z"/><path class="cls-21" d="M41.7,30.68c-.32.3-.66.59-1,.91-.57.63-.57.65-.14,1.65.18.43-.11.86-.3,1.26a.8.8,0,0,1-.87.41,1,1,0,0,0-.87,0c-.28.12-.42-.16-.24-.43s.46-.56.65-.86c.73-1.18.32-2.36-.91-2.58-.13,0-.37.18-.56.28s-.31,0-.23-.18c.25-.49.55-1,.83-1.46.56-.1.93.2,1.38.33.25.07.51-.13.74-.31a.3.3,0,0,1,.16-.26q.14-.07.17,0Z"/><path class="cls-19" d="M43.92,40.76l-.55,0-.71-.74-1.17-1.24-.54,0-.23-.27c.35-.33.77-.63.72-1.13a.3.3,0,0,1,.15-.26q.14-.07.17,0a2.48,2.48,0,0,0,.24.24c.27.27.47.63,1,.46l.47.49q-.05.29.24.25h0l1.15,1.21a.82.82,0,0,0,.81.25c.37,0,.53.19.53.54a1.24,1.24,0,0,1-1,.84l-.24-.24c-.19,0-.36,0-.55,0Z"/><path class="cls-20" d="M37.07,29a2.09,2.09,0,0,1,1.43-1.15c.12.31-.08.76.23,1Z"/><path class="cls-20" d="M38.73,28.79c.72-.19.89.39,1.26.69C39.27,29.67,39.1,29.09,38.73,28.79Z"/><path class="cls-20" d="M40.54,29.43l-.32.3-.12-.12L40,29.48Z"/><path class="cls-22" d="M64.6,3.56c.37,0,.75,0,1.12,0s.77-.6,1-.33.14.53.54.49c.58-.07.73,1,1.57.25l1.57.65c0,1.36-1.09,2-2.12,2.73-.26.08-.6.15-.72,0-1.05-1.49-2.8-1.7-4.74-1.56a.65.65,0,0,1-.29-.39A4.06,4.06,0,0,1,63.07,4c.32-.51.33-1.32,1.1-1.42C64.77,2.5,64.63,3.11,64.6,3.56Z"/><path class="cls-23" d="M68.1,7.28a15.62,15.62,0,0,0,2.34-2.67l.32-.29.55-.06h0c.31,1.49.31,1.49,2.31,3.45.2.66.57,1.34-.19,2.12s-1.27,0-1.94,0-1.29-.44-2.09-.32c-.32-.09-.06-.71-.58-.61-.35,0-.65-.19-1-.26a1.17,1.17,0,0,1-.73-.35.6.6,0,0,1,.07-.43,1.51,1.51,0,0,1,.35-.34C67.7,7.44,67.94,7.5,68.1,7.28Z"/><path class="cls-24" d="M70.07,1.73a.92.92,0,0,0,.78.23,1.08,1.08,0,0,0,1,.44c.28.24.52.54,1,.47.64.48,1.12,1.16,2,1.38a1.09,1.09,0,0,0,1,.41c.36.47,1,.72,1.06,1.45,0,.45.56.31.84.46-.2.77-.65,1.11-1.3.82A4.1,4.1,0,0,0,75,6.84a5.13,5.13,0,0,1-3.6-3.13c-.26-.28-.54-.55-.79-.84a1.14,1.14,0,0,0-1.12-.29c-.9.12-.91.07-1.05-.72a2.18,2.18,0,0,1,0-.55A2.93,2.93,0,0,0,70.07,1.73Z"/><path class="cls-22" d="M71.4,3.72c.51-.22.93-.27,1,.33,0,.36,0,.73.07,1.1a.31.31,0,0,0,.34.32c1.06.06,1.09,0,1.47.77.19.36.6-.06.81.12A1.63,1.63,0,0,1,74,7.8a1,1,0,0,1-.51,0c-.76-.1-1.1-.89-2-.74-.35.06-.39-.33-.47-.61-.2-.71.23-1.49.34-2.23Z"/><path class="cls-25" d="M65-.52l.48.48c.28.33.24.69-.17,1.09a1.24,1.24,0,0,1-1.56,1,1,1,0,0,1-.42-.23C63.09.85,61.13,1,62.09-.66l.21-.21c.63-.41,1.09,0,1.64-.08A1.1,1.1,0,0,0,65-.52Z"/><path class="cls-26" d="M63.52,1.77c.61-.1,1.25-.06,1.75-.72l.55,0c.18,0,.37-.06.56-.06s.55,0,.49.28a1.51,1.51,0,0,1-.75,1.17A5.92,5.92,0,0,0,64.6,3.56,5.17,5.17,0,0,0,64.25,3c-.14-.17-.36-.07-.4.14a1.6,1.6,0,0,1-.45,1.07C61.88,3.78,61.88,3.69,63.52,1.77Z"/><path class="cls-25" d="M66.38.94,65.82,1Z"/><path class="cls-22" d="M71.31,4.27l-.55.06Z"/><path class="cls-27" d="M46.9,42.64l.32-.29c.31.33.26.69-.17,1.1l-.45-.5Z"/><path class="cls-28" d="M58,41.59l-.32.28-.25-.24-.54,0-1,.91a2.26,2.26,0,0,1-.1.55h0a.31.31,0,0,1-.16.26q-.13.07-.16,0h0a.43.43,0,0,1-.38-.11.38.38,0,0,1-.09-.38c-.09-.37-.09-.78-.37-1l.06-.26c.47-.59,1-1.17,1.42-1.77a.94.94,0,0,1,.52-.16,2.15,2.15,0,0,1,.73.16,1.41,1.41,0,0,1,.38.28A1.38,1.38,0,0,1,58,41.59Z"/><path class="cls-29" d="M73.79,7.56c.67-.15.85-.82,1.29-1.21.67.13,1.43,0,1.8.75.17.34.61-.29.91-.52a1.8,1.8,0,0,0,.28-.16l.48.41a16.85,16.85,0,0,0,1.69,3c.12.21.52.21.79.31-.29.23-.6.42-.91.27a.85.85,0,0,0-.9,0c-.33.2-.48.1-.52-.19a1.34,1.34,0,0,0,0-.18c-.37-1.25-.62-1.26-2.05,0,.42.69,1.06,1.27,1,2.25,0,.37-.27.53-.6.62a.56.56,0,0,1-.35-.12,1.25,1.25,0,0,0-.37-.33,1.17,1.17,0,0,0-.36,0,2,2,0,0,0-.4.12l-.21.11c-.44.24-.84.66-1.34.54-.29-.19-.35-.47-.15-.85A34.67,34.67,0,0,1,73.79,7.56Z"/><path class="cls-30" d="M66.46,46.72c-.5-.07-.83.34-1.2.66l-.31.27q-.28.05-.24-.22h0c0-.19.05-.37.09-.55h0A2.42,2.42,0,0,1,65,45.78l.31-.3c0-.19,0-.26-.23-.25h0c-.34,0-.51-.14-.46-.49h0c.07-.31-.21-.49-.14-.8h0c0-.32-.32-.44-.27-.77a1,1,0,0,1,.38-.53c.36-.28-.2-.18-.1-.36,0-.6.38-.93.89-.83.76.15,1.36.62,1.07,1.5-.23.7,0,.55.41.36,1,.41,2.13.07,3.23,0-.1,1.19,1.1,2.13-.17,3.57a13.17,13.17,0,0,1-1,1.14,1.25,1.25,0,0,1-1.06.23h0a2,2,0,0,1-.59-1A.57.57,0,0,0,66.46,46.72Z"/><path class="cls-31" d="M93.78,22.15c0-.16-.21-.28-.42-.12-.45.35-.87.74-1.3,1.11h0A1.49,1.49,0,0,1,93,21.31a.69.69,0,0,0,.33-.7l.35-.36.53,0,.45.49c-.08.23,0,.34.24.31a.27.27,0,0,0,.17.2"/><path class="cls-32" d="M68.68,51.65a.75.75,0,0,1-.71-.74l.09-.55a.66.66,0,0,0-.14-.8c1-.71,1-.71.8-1.67a3.75,3.75,0,0,1,.74-1.19.64.64,0,0,1,.42.07"/><path class="cls-33" d="M44.18,34a2,2,0,0,0-.37-1.07c.19-.27.58-.46.64-.27.35,1.1.92-.27,1.34-.19h0c.5.22.27,1.51,1.57.65.53-.35.87.47,1.41.56l.76-.12c.66-.12.57.42.66.79a1.24,1.24,0,0,1,.34.13,1.08,1.08,0,0,1,.36.42,1,1,0,0,1,.07.4,1.48,1.48,0,0,1-.25.66,1.07,1.07,0,0,1-.4.28,2.31,2.31,0,0,1-.67.06,2.69,2.69,0,0,0-.92.18c-.67.36-1.13.05-1.65-.09h0a1.22,1.22,0,0,1-.56.05v0h-.21l-.11-.15a1.66,1.66,0,0,0-.25-.49l-.12-.14c-.3-.11-.62-.17-.44-.68.06-.18-.12-.38-.18-.58a3.68,3.68,0,0,0-.55,0Z"/><path class="cls-19" d="M44.66,34.45l.55,0Z"/><path class="cls-34" d="M30.8-.24l.31-.32C31.91-1.3,32.72-2,33.5-2.8a3.22,3.22,0,0,0,1-1.37.48.48,0,0,0,.22-.26L36.66-6.2c.6,0,1-.62,1.5-.86l.52.29a1.58,1.58,0,0,1-.55,1.09C36.68-4.15,35-2.77,34.25-.77,33.12-.21,32.16.47,32.19,1.8c-.23.64.51,1.31-.54,1.93-.06,0-.06.12,0,.13a.85.85,0,0,1,.87.72,1.33,1.33,0,0,1-.34.73c-.2.87-.49,1.64-1.64,1.55-.58,0-1,.72-1.64.68a2.07,2.07,0,0,0-.17-.28.78.78,0,0,0,0-.82l.09-.54a1.87,1.87,0,0,0,.39-1.4h0A2.2,2.2,0,0,1,29.32,4h0a1.51,1.51,0,0,1,.09-.56h0c.15-.55.59-1.12.36-1.66a1.19,1.19,0,0,0,.35-.84,1.21,1.21,0,0,0,.41-.85A1.17,1.17,0,0,0,30.8-.24Z"/><path class="cls-31" d="M91.72,20.19a.38.38,0,0,0,.45-.31c.08-.25.18-.51.28-.76a.87.87,0,0,1,.05,1.19,1.56,1.56,0,0,0-.4.92C91.22,21.16,91.18,21.06,91.72,20.19Z"/><path class="cls-31" d="M93,20.88l-.56.06Z"/><path class="cls-28" d="M52.94,40.71l-1.56-.4h0a1,1,0,0,1,.3-.51l.76-.72c-.26.23-.52.47-.77.71a1,1,0,0,1-.53.26h0a2.64,2.64,0,0,1,.14-.52c.33-.69.34-.69-.52-.52l-.11-.12-.11-.12c0-.35-.11-.53-.48-.5h0l-.55,0c-.12-.49.62-.9.49-1.39a.25.25,0,0,1-.29-.27l.16-.25a.94.94,0,0,1,.52-.13c2-.55,3.67,0,4.16,1.38-.7,1.08-.4,2.16-.8,3.24l-.32.29Z"/><path class="cls-25" d="M59.29-2.63a.76.76,0,0,0,.78.24,1.27,1.27,0,0,0,1.06.32L62.3-.87l-.05.15c-.63,1-1.25.05-1.88.45A17.6,17.6,0,0,0,52.77.3c-1.24.43-1-1.34-1.82-1.6A1.52,1.52,0,0,1,49,.15a.55.55,0,0,1-.25-.3c-.12-.16.28-.31.13-.47-.12.29-.24.58-.61.66-.2,0-.5,0-.48-.14.2-.95.06-1.6-1-1.74-.18,0-.06-.57-.06-.88.21-2.15,1.38-2.81,3.79-2.13a2.29,2.29,0,0,0,1.12-.07h0c.34-.13.48.23.8.14h0a.7.7,0,0,0,.78.22.71.71,0,0,0,.78.21.73.73,0,0,0,.78.23.77.77,0,0,0,.78.24,1.15,1.15,0,0,0,1.05.33.74.74,0,0,0,.78.23A1.61,1.61,0,0,0,59.29-2.63Z"/><path class="cls-20" d="M26.57,28l-.47-.48c.21-.69-.34-.9-.6-1.3l.27-.3a1.76,1.76,0,0,1,2.2.74,2.1,2.1,0,0,0,1.41.91c.73.66,1.52,1.27,1.51,2.48a.69.69,0,0,1-.4.36c-.39-.09-.49-.57-1-.55l-.17-.23c-.07-.86-.11-.9-1-1h0a2.3,2.3,0,0,1-.7-.06,1.12,1.12,0,0,1-.39-.19c-.21-.18-.34-.46-.71-.43Z"/><path class="cls-20" d="M31.4,31.93a2.06,2.06,0,0,0-.24-.23.72.72,0,0,1-.7-.75l-.1-.13-.12-.12a.22.22,0,0,1,.09-.25q.13-.08.16,0h.08a1.11,1.11,0,0,1,1.25,1.06A.49.49,0,0,1,31.4,31.93Z"/><path class="cls-35" d="M25.53,16a1.15,1.15,0,0,0,.36-.85,1.51,1.51,0,0,0,.51-1.4,1.8,1.8,0,0,0,.55-1.4l.32-.28a.54.54,0,0,1,.43.11,1.14,1.14,0,0,1,.21.39,8.26,8.26,0,0,1,.21.92c-.46,1.47-.18,2.88-.69,4.35a3.19,3.19,0,0,1-1.47,2,.28.28,0,0,1-.27-.34c-.6-.4-.43-1.16-.46-1.83h0a1,1,0,0,0,0-.4c0-.07,0-.14,0-.21s0-.28.07-.42l.06-.21a1.81,1.81,0,0,0,.19-.41Z"/><path class="cls-36" d="M25.69,19.45l.29.27c1.29.83,1.19,1.42-.41,2.37a1.84,1.84,0,0,1-.54,0,.36.36,0,0,1-.25-.36v0a1.49,1.49,0,0,0,.2-1.07l0-.17a1.79,1.79,0,0,0,.16-.38h0Z"/><path class="cls-37" d="M27.66,12.51l-.4-.48.29-1.67a1.1,1.1,0,0,0,.36-.85L28.07,9l.3-.27a.62.62,0,0,1,.57-.1c.33,0,0-.27.2-.38.74-.91,1.27-.61,1.42,0s.75,1.69-.09,2C29.17,10.76,28.92,12.29,27.66,12.51Z"/><path class="cls-38" d="M50.63-4.85a5.12,5.12,0,0,0-2.69.4c-.61.33-.7.46-.63,1.24a4.1,4.1,0,0,1,0,.56c-1,1-1.49-.13-2.27-.07-1.4.36-2.8.32-4.19,1a4.06,4.06,0,0,1-.27.49,2.64,2.64,0,0,1-.41.42C37.84.5,35.32.48,33.89-.82a1.5,1.5,0,0,0,.7-1.39,1.46,1.46,0,0,1,1-1.61,3.82,3.82,0,0,0,1.28-1.11,22.33,22.33,0,0,1,1.84-1.84L39-7a.52.52,0,0,0,.55,0,.51.51,0,0,0,.55,0l.55,0,.53,0A.83.83,0,0,0,42-7L42.5-7a2.16,2.16,0,0,0,1.35.11.72.72,0,0,0,.8.17A1.52,1.52,0,0,0,46-6.53a.77.77,0,0,0,.79.19.81.81,0,0,0,.78.23c.29.22.54.51,1,.44a.69.69,0,0,0,.81.14l.53,0Z"/><path class="cls-28" d="M54.35,42.19l.08-.55q.28,0,.24.24v0Z"/><path class="cls-39" d="M29.33,27.8c-.65.29-1.23.22-1.43-.29-.38-1-1.24-1.24-2.13-1.54l-.84-1a.73.73,0,0,0-.2-.79.77.77,0,0,0-.14-.8h0a1.26,1.26,0,0,0,0-.42c0-.07,0-.15,0-.22a4.26,4.26,0,0,1,.09-.45l.11-.22L25,22l.13,0c.57,0,1.3-.06,1.46.44.53,1.72,1.88,1.65,3.59,1.1a3.22,3.22,0,0,1,2.2.09c.6.48.2,1.12-.16,1.76-.76,1.18-1.58,1.47-2.45.74a1.15,1.15,0,0,0-.39.22c-.4.5,0,.58.23.76a.63.63,0,0,1,.13.42A.49.49,0,0,1,29.33,27.8Z"/><path class="cls-40" d="M27.66,12.51c.11-.18.2-.46.35-.53.86-.39.57-1,.63-1.55l1.9-.3C30.39,9.48,30,9,30.2,8.35c0-.1-.18-.29-.33-.33-.31-.08-.47.2-.6.46l-.2.38-.71-.16,0-.59.56-.58a5.33,5.33,0,0,0,.74-.76A.92.92,0,0,1,31,6.35c.56.2.65.08.57-.61,0-.23,0-.35.26-.39,2.25-1,2.43.49,2.7,1.88a.88.88,0,0,1,.08.49c-.33,1-1,.92-1.59.76-.43-.11-.75-.25-1.1.41s-.14,1,.42,1.08,1.17.18.66,1.07c-.11.17-.4.07-.41.22s.28-.08.38,0c.43,1.05-.55,2.4-.15,3.45a1,1,0,0,1-.41.43c-1.2.34-1.32-.65-1.69-1.08-.22-.33-.44.22-.26,0,0-.05.07,0,.13,0a1.79,1.79,0,0,1,.4,2.13,4.24,4.24,0,0,1-.81,1.58c-1.16.52-.93-.36-.92-.93a5.28,5.28,0,0,0-.1-2.2,2,2,0,0,1-.08-.49c0-.39.21-.9-.46-.91-.49,0-.93-.17-1-.75Z"/><path class="cls-41" d="M86.13,23.86c-.74,0-1.25,1.17-2,.75,0-.7-.07-1.41.89-1.88L86.78,22a6.66,6.66,0,0,1,1.29,2.91"/><path class="cls-41" d="M82.56,26.86c-.29-.6.23-1.08.89-1.37"/><path class="cls-41" d="M86.78,22c-.28-.49-.28-.49.41-.84l.24.24c.38.09.9,0,1,.44-.23.36-.44.79-.85.39A.73.73,0,0,0,86.78,22Z"/><path class="cls-17" d="M88.45,21.85c-.36-.12-.78-.14-1-.44a7,7,0,0,1,.91-.21C88.81,21.16,88.82,21.24,88.45,21.85Z"/><path class="cls-31" d="M90.53,22.82l-.25-.14a2.33,2.33,0,0,1,.3-.21s.12,0,.14.07S90.71,22.78,90.53,22.82Z"/><polygon class="cls-8" points="88.39 20.51 88.58 20.44 88.56 20.54 88.39 20.51"/><path class="cls-31" d="M92.06,23.14c0,.06,0,.16,0,.17s-.14,0,0-.17Z"/><path class="cls-42" d="M78.43,14.43l.47.48c-.3.17-.68.26-.75.67a.8.8,0,0,0,.45.88c.23.12.31-.13.36-.32s.19-.41.4-.41a.5.5,0,0,1,.41.25A2.29,2.29,0,0,1,80,17.41c-.13.61,0,1,.65.94.05,0,.12.22.08.3a1.54,1.54,0,0,1-.42.44.49.49,0,0,1-.37,0c-.91-.26-1.55.31-2.13,1.09a.54.54,0,0,1-.18.32c-.1.08-.16.12-.17.1a.78.78,0,0,1-.92-.27,1.14,1.14,0,0,1,0-1c.47-.44.78-1.07,1.47-1.27a.64.64,0,0,0-.75-.32c-.71.14-.06.39-.14.62a2,2,0,0,1-1.67,1.45c-1,.12-.58-.79-.47-1.39a3.1,3.1,0,0,0,.16-1.69c-.42-1.07,0-1.9,1.08-1.8C77,15,77.7,14.38,78.43,14.43Z"/><path class="cls-43" d="M85,22.73c-.5.51-.41,1.17-.81,1.7a.58.58,0,0,1-.7.3c-.89-.8-1.38.74-2.12.85a2,2,0,0,1-.56.18.85.85,0,0,1-.89-.4.71.71,0,0,1,.08-.53c0-.15.45-.34.26-.37-1.41-.17-1.47-.41-.36-1.91l.28-.45a4.11,4.11,0,0,0,.69-.79,2,2,0,0,1,1.24-1h0c.61.55,1.09,1.16.12,2.58,1.55-1.2,1.55-1.2,2.3-.65Z"/><path class="cls-44" d="M82.14,20.3a1.16,1.16,0,0,0-.79-.31c-.25,0-.69.44-.74-.07,0-.26.64-1,.94-1.1.1,0,.29,0,.3,0,0,.87,1.2.66,1.35,1.41-.42.3-.63-.25-1,0Z"/><path class="cls-45" d="M80.21,22.1l.23.25c-1.49,1.34-1.78.35-2.09-.6l.06-.29c1-.45,1-.46,1.3.27C79.8,22,80,22,80.21,22.1Z"/><path class="cls-45" d="M77.47,20.47l.32-.29c.43.33,0,.91.06,1.34l-.1.27c-.34.38-.66.43-1,.2a1,1,0,0,1,0-1A1.06,1.06,0,0,1,77.47,20.47Z"/><path class="cls-45" d="M77.85,21.52l.55-.05h0C78.17,21.8,78,21.82,77.85,21.52Z"/><path class="cls-14" d="M76.83,21.07l.14.8a.62.62,0,0,1-.19.33c-.1.09-.16.13-.17.11-1.24.37-2.06.16-2-1.16-.84-.2-1.29,1.14-2.06.8-.36-.27-.24-.71-.16-1.14a1.25,1.25,0,0,0-.31-1.21,1.29,1.29,0,0,1-.16-.42c-.16-.81.41-1.51.88-2.22.93-1.76,1.71-3.66,4-4.3a1,1,0,0,0,.87-.36c1.11.24,1.1,1.08.76,2.11-.35.37-.89.44-1.17.93-.11.19-.34.27-.47.11-.51-.63-1.11-.13-1.7.28a.36.36,0,0,0-.14.5s.23,0,.33-.05c.25-.15.43-.09.39.13-.13.67.1,1.29-.29,2a5.22,5.22,0,0,0-.31,1.25,3.61,3.61,0,0,0,1.5-.75c.26-.22.39-.6,0-.72a1.27,1.27,0,0,1-.27-.16c.25-.26.49-.53.75-.77s.48-.15.62.06c.31.5.92.11,1.39.15a.26.26,0,0,1,.19.23A.56.56,0,0,1,79,18a1.3,1.3,0,0,1-.54.31,3.45,3.45,0,0,0-2,1.19,4.77,4.77,0,0,0-.08.62,1.77,1.77,0,0,0,0,.37,2.52,2.52,0,0,0,.11.33A1.26,1.26,0,0,0,76.83,21.07Z"/><path class="cls-14" d="M87.13,19.82c0,.06,0,.15,0,.16s-.13,0,0-.16Z"/><path class="cls-46" d="M31.9,25.38a2.67,2.67,0,0,1,.24-.69.72.72,0,0,0,0-1c-.56,0-.92-.33-.61-.92.4-.78-.05-1.11-.3-1.58a1.52,1.52,0,0,1,.55-2.07c.91-.72,1.35-.21,1.76.24s2,.29.65,2.08c-.59.77.84,0,1.32,0,.26,0,.57.07.58.31.11,1.44.93,1.55,2.27.82.92-.5,1.74-.77,1.71.55,0,.44.34.81.69.54,2-1.52,3.76-.55,5.65-1,.57-.25.8,0,1,.41a2.12,2.12,0,0,0,2.55.8.74.74,0,0,1,.58.42A2.13,2.13,0,0,1,50,26a1.78,1.78,0,0,1-.76.57,1.73,1.73,0,0,1-.8-.07,2.61,2.61,0,0,0-2.09.36,2.79,2.79,0,0,1-2.29.35,2,2,0,0,0-2.5.81c-.53,0-1.15.23-1.51-.3-.65-1-1.73-.66-2.85-.12-.17.08-.35.31-.43.1s.11-.34.17-.52c.21-.58.13-.72-.44-.44s-.89.1-1.33.26h0c-.93,0-1.34-1-2.4-.68a.89.89,0,0,1-.45-.12C32.1,26,32,25.64,31.9,25.38Z"/><path class="cls-47" d="M41.59,28c.63-.55.55-1.18.5-2.09.63.44.82,1.22,1.64.61a.31.31,0,0,1,.32,0c.61.95,1.61,0,2.43-.11.43-.8,1-.57,1.54-.55.25,0,.49,0,.73.07-.36,1-1.43,1.57-2.21,2.38.67.5,1.44-.59,1.87,0a1.09,1.09,0,0,1,.28.39A1.8,1.8,0,0,1,48.37,30l-.32.3c-.2,0-.28-.05-.24-.25l-.22-.25c-.31,0-.57.33-.88.35h0c-.18,0-.39.18-.55.05L45.91,30c-.32,0-.46-.25-.78-.2h0l-.55.06c-.25.05-.68.23-.74.14-.42-.7-1.48-.7-1.77-1.53h0a1.65,1.65,0,0,1-.36.13C41.19,28.65,41.18,28.59,41.59,28Z"/><path class="cls-48" d="M48.37,30a1.39,1.39,0,0,1,.17-1.1,1.51,1.51,0,0,0,.26-1.67,1.16,1.16,0,0,1,.46-.66c.39-.3.92-.44,1-.13.54,1.54,3.66-.53,3.47,1.95a7.41,7.41,0,0,1-2,3.09,2.17,2.17,0,0,1-.54.27,1.55,1.55,0,0,1-.77-.07,1.09,1.09,0,0,1-.38-.25A1.54,1.54,0,0,0,49.3,31a3.24,3.24,0,0,1-.29-.61C48.92,30.1,48.77,29.91,48.37,30Z"/><path class="cls-49" d="M49.3,31a4.13,4.13,0,0,1,.32-.29c.57-.43.6-.42.66.2l0,.54c-.34.75.16,1.62-.9,2.26l-.64.59c-.32-.66-1.22-1-.76-2.09Z"/><path class="cls-50" d="M48,32.24l.76,2.09c-.2.08-.4.1-.51,0a7.41,7.41,0,0,0-.7-.91.36.36,0,0,0-.58.27c-.1.5-.31.73-.79.6s-.76-.12-.55-.67a1.85,1.85,0,0,0,.15-1.12A3.09,3.09,0,0,0,48,32.24Z"/><path class="cls-50" d="M45.8,32.45a4.64,4.64,0,0,0-.41.49c-.27.42-.52.4-.76.18a.76.76,0,0,0-.81-.21l-.14-.8c.31-.06.69,0,.9-.2.74-.64.87-.19,1,.27A1.3,1.3,0,0,0,45.8,32.45Z"/><path class="cls-48" d="M45.13,29.8a.67.67,0,0,1,.78.2A.66.66,0,0,1,45.13,29.8Z"/><path class="cls-48" d="M46.15,30.25l.55-.05C46.2,30.62,46.2,30.62,46.15,30.25Z"/><path class="cls-48" d="M47.8,30.09l.24.25c0,.18-.08.38-.27.21S47.79,30.25,47.8,30.09Z"/><path class="cls-48" d="M46.7,30.19a1,1,0,0,1,.88-.35A1,1,0,0,1,46.7,30.19Z"/><path class="cls-48" d="M44.57,29.86l.55-.06Z"/><path class="cls-51" d="M32.6,26.12c.65-.54,1.22-.58,1.68-.12.31.31.61.64.91,1a8.13,8.13,0,0,1-2.65.81c-.15,0-.35.2-.53.3.09.21.27.4.25.63a4.52,4.52,0,0,0,.2,2.15c.07.17-.12.49-.19.75l-.31.28-.22-.17-1.17-1.33a1.9,1.9,0,0,0-.84-1.7,2,2,0,0,1-.4-.89l.32-.3c-.09-.06-.17-.16-.29-.19s-.67,0-.68-.08a3,3,0,0,1,.16-1.12c.06-.2.32-.23.52-.21a3.71,3.71,0,0,1,.32-.29c.22-.16.44-.43.66-.15s0,.87.55.72c.34-.1.67-.52,1-.79.48-.14.65,0,.47.5-.57.65-.1.69.31.76.14-.06.18.05.26.1,0-.12,0-.16-.16-.12A.4.4,0,0,1,32.6,26.12Z"/><path class="cls-52" d="M62.67,5.36l.23.25c1.19.61,1.21.67.39,1.59l-1.54.23s-.07.11-.15.25c.58.68,1.1-.63,1.63-.47,1-.14,1.49.85,2.5.78a2.27,2.27,0,0,1,.54.5,2.24,2.24,0,0,1,.26.43,1.3,1.3,0,0,1,.12.33c.1.58.46,1.25-.11,1.8s-1.24.22-1.82.08c-.35-.19-.63-.57-1.12-.43a1.93,1.93,0,0,1-2.52-.78c-.13-.23-.45-.06-.69.13a1.79,1.79,0,0,1-1,.33.55.55,0,0,1-.28-.35c-.05-1.64-1.3,0-1.87-.22a.58.58,0,0,1-.42-.16A2.86,2.86,0,0,0,56,8.35c-.23-.71-1-.76-1.54-1.11.08-.77-.66-.08-.89-.31a11.08,11.08,0,0,1-1.19-.58,2.58,2.58,0,0,1-.4-.2c-.46-.36-1-.66-1.45-1a1.24,1.24,0,0,1-.24-.39A2,2,0,0,1,50.23,4a.74.74,0,0,1,.28-.45,2.56,2.56,0,0,1,1.62.06l.43.06a2,2,0,0,0,.69-.17,3.85,3.85,0,0,1,.51-.2A2.15,2.15,0,0,1,56.07,4a3.33,3.33,0,0,0,2.37.64c.11.15.17-.34,0-.1s-.12.12-.19,0c-.74-1.32.78-1.61,1.47-2.09s1.51-.65,1.33.55C60.88,4.33,62.61,4.2,62.67,5.36Z"/><path class="cls-53" d="M62.67,5.36A1.06,1.06,0,0,0,61.88,5c-.34,0-.6-.07-.59-.47s-.16-.34-.42-.4c-1-.25-1-.3-.16-1.31.07-.09.14-.28.1-.31a.47.47,0,0,0-.34-.07A4.25,4.25,0,0,0,58.4,3.83a.26.26,0,0,0,.06.45c.31.13.65.24,1,.37A4.7,4.7,0,0,1,57.31,5c-.64,0-1.25-.07-1.59-.59A1.37,1.37,0,0,1,56.9,2.93a3.9,3.9,0,0,0,1.8-1.05A1.16,1.16,0,0,0,59.85.4a1,1,0,0,1,.46-.33,1.17,1.17,0,0,1,1.38.8c.25.87.91,1,1.82.9h0c.31.41.2.67-.39,1s-.68.71-.14,1.1l.15.09.26.21A3.59,3.59,0,0,1,62.67,5.36Z"/><path class="cls-53" d="M65.47,8.34A8.56,8.56,0,0,1,63.2,7.21h0c.3-.34.57-.68.12-.91-.28-.14-.33-.42-.41-.69.71-.38,1.35.07,2.12-.43a.9.9,0,0,1,1.16.26c.17.23.3.48.66.47s.62.19.56.68.5.41.68.69-.06.37-.32.3a.31.31,0,0,0-.27.14q-.08.13,0,.16l-.31.3c-.64,0-.2,1.09-1,.9L66.06,9l-.11-.12C66,8.49,65.83,8.32,65.47,8.34Z"/><path class="cls-54" d="M66.18,9.08l.34-.53c.19-.28-.38-.5.1-.74.12-.06.35.24.52.37l.78.19c.47-.06.53.54,1,.44.54-.32.53-.32.47.17a3.33,3.33,0,0,0,0,.34c.21.42,1.82.08.5,1.35-2.48.19-2.18,2.37-3.08,3.68-.35.39-1,.53-.89,1.3a.8.8,0,0,1-1.22.7c-1.58,0-2.55-1.22-4.24-1.17-.95,0-.46.62-.76.8-.25.46-.51.89-1.1.86-1.77-.88-1.81-1.11-.44-2.76.11-.13.23-.26.33-.41a2.62,2.62,0,0,0,.17-.47c-.12-1,1.23-2,.76-2.94a1,1,0,0,1,.87-.36c1.13-.07,1.55.81,1.92,1.48.64,1.17,1.21.92,2.06-.23a.94.94,0,0,1,.53-.33c.52,0,1.11-.24,1.72.31Z"/><path class="cls-55" d="M69.79,10.37c.12-.21.67-.55,0-.52-.39,0-.5-.14-.37-.52a1.14,1.14,0,0,0,.75-.24,1.88,1.88,0,0,1,.71-.38c.35,0,.14.38.23.56.2.43.52.52,1,.06.21-.19.57-.25.52.15s0,.5.37.37a.8.8,0,0,0,.47-.65c.08-.47-.51-.77,0-1.35l.32-.29c.11.33.05.76.37.94s.6.47.14,1a2.48,2.48,0,0,0-.28.55c-.26.53-.15.87.31,1a2.09,2.09,0,0,1,.33.12c.25.14.48.32.29.72a.8.8,0,0,1-.83.46C72.19,12.46,70.43,12.27,69.79,10.37Z"/><path class="cls-53" d="M68.95,8.82c-.55.18-.75-.18-1-.44C68.47,8.21,68.68,8.56,68.95,8.82Z"/><path class="cls-54" d="M67.46,7.89c-.05-.27.05-.38.32-.31Z"/><path class="cls-26" d="M63.51,1.77c-.38.33-.73.71-1.25.62s-.83-.22-.82-.73c0-.89-.65-1.13-1.23-1.47a.9.9,0,0,1,.23-.67l.18-.19c.38-.18.73-.26,1,.05s.43,0,.65-.1C62.09,0,62.14.67,63,.68S63.52,1.31,63.51,1.77Z"/><path class="cls-56" d="M64.29,43.15a5.87,5.87,0,0,1-.67.55.85.85,0,0,1-.55.14c-.38-.11,0-.4.06-.62.1-.41-.09-.54-.48-.38a9.14,9.14,0,0,0-2.73,2.06l-.79,0c.31-.43.58-.82.87-1.2s.51-.68.79-1,.49-.7.23-1a.9.9,0,0,0-1.31-.18,3.65,3.65,0,0,0-.33.28c-.63.52-.63.52-1.15.08-.09-.07-.16-.16-.24-.24l-.61-1.31c.26-.56.84-.83,1.17-.68,1.13.52,2.4.05,3.62-.33,2.06-.65,3.21.41,4.55,1.14,1.22,1.26,1.27,1.89.26,3a10.68,10.68,0,0,1-.82.71c-.43.31-.77.25-.91-.15a.57.57,0,0,1,.37-.79c.49-.19.75-.38.4-.78a5.6,5.6,0,0,0-.47-.48c-.17-.15-.4-.31-.65-.06s-.08.47,0,.66Z"/><path class="cls-33" d="M66.64,40.47c-.18.09-.4.27-.53.25s-.36-.28-.58-.33c-.74-.19-.8-1.37-2.14-.78-.82.36-1.75.05-2.69.51-.77.37-1.51.62-2-.12-.24-.34-.85.13-1.29.28L57.15,40a1.89,1.89,0,0,1,.51-1c-.37.35-.57.85-1.07,1.08l-.23-.23c-2,.75-2.33.38-2.1-2.24,0-.06,0-.16,0-.19-.35-.27-.7-.53-1.08-.81a3.56,3.56,0,0,1-.38.77.91.91,0,0,1-.53.2c-.06,0-.16-.16-.15-.25,0-.3.39-.8,0-.81s-.66-.5-1.22-.06a.58.58,0,0,1-.84-.08.25.25,0,0,1,.13-.27q.14-.07.17,0h0a6.28,6.28,0,0,1,2.79-1.56,1.79,1.79,0,0,1,.52.05,1.72,1.72,0,0,0,1.3,0c.26-.09.55-.13.71.07,1.43,1.78,2,2.09,4.55,2.43A3.26,3.26,0,0,0,62.56,36c1.61,0,1.32.89.53,2a9.51,9.51,0,0,1,3.08-.81.88.88,0,0,1,.71.57,5.37,5.37,0,0,0,.46,1.72,1,1,0,0,1,0,.43c-.11.23-.34.27-.52.4Z"/><path class="cls-56" d="M54.26,37.6c0,.49.4.72.36,1.29-.07,1,.07,1,1.18,1l.56,0a2.62,2.62,0,0,1-1.69,2l-.24-.24h0c.05-.36-.11-.52-.46-.51l-.24-.23A3.09,3.09,0,0,1,54.26,37.6Z"/><path class="cls-56" d="M56.6,40.08a2.85,2.85,0,0,1,1-1.31c.09-.06.27-.08.32,0a.39.39,0,0,1,0,.33,2.39,2.39,0,0,1-.76,1Z"/><path class="cls-57" d="M69.79,10.37a3.45,3.45,0,0,1,2.12,1.9.76.76,0,0,0,.52-.56c.08-.25.16-.54.5-.52s.56,0,.56.31c0,.48.12.82.61.89a.67.67,0,0,0,.14.8c.76.2.84-1,1.52-1h0l.55-.05h0c.33,0,.49.16.46.5h0l-1.5,1.14c0,.73-.8.9-1.11,1.4s-.87.92-.53,1.53c.1.18-.3.37-.57.35-.49-.09-.52-.55-.67-.92-.48-.58-1.12-1-1.21-1.93s-1.46-1.17-2.23-1.7c-.9.53-.64,2.12-2.1,2.07a.45.45,0,0,1-.15-.45,1.4,1.4,0,0,1,.12-.93,2.85,2.85,0,0,0,.49-2.11C68.13,10.58,69,11,69.79,10.37Z"/><path class="cls-14" d="M75.78,12.23a4.23,4.23,0,0,0-1.11,1.55c-.12.25-.28.52-.58.39s-.25-.36-.09-.63a3.23,3.23,0,0,1,.26-.34C74.74,12.82,75.1,12.19,75.78,12.23Z"/><path class="cls-14" d="M76.8,12.68l-.46-.5C76.82,12,77,12.2,76.8,12.68Z"/><path class="cls-14" d="M76.33,12.18l-.55.05Z"/><path class="cls-58" d="M69.7,46.95l-.24-.24c.57-.46.95-1,.6-1.53S69.94,44,70,43.4c0-.34-.33-.52-.27-.9"/><path class="cls-33" d="M69.85,42.6a.67.67,0,0,1,.14.8c-.69-.07-1,.63-1.57.94s-.78.23-.81-.23a.71.71,0,0,0-.61-.69c.19-.22.41-.46.35-.7a10.82,10.82,0,0,0-.71-2.24.36.36,0,0,1,.16-.25q.13-.08.15-.05h0a2.85,2.85,0,0,1,2.61,1.33,2.88,2.88,0,0,1-.65,1.15c-.07.12,0,.2.09.22s.4-.2.61-.26Z"/><polygon class="cls-56" points="64.94 42.53 65.13 42.46 65.12 42.57 64.94 42.53"/><path class="cls-28" d="M54,41.14q.72-.2.46.51Z"/><path class="cls-30" d="M70.8,46.94a3.26,3.26,0,0,0-.67.55c-.16.13-.36.33-.51.18s0-.46.08-.71A3,3,0,0,1,71,46.31"/><path class="cls-50" d="M53.36,34.7c-1,.33-1.88,1.21-2.94,1.36l.39-.85h0l-.46-.5c.19-.34,0-.29-.24-.24l-.21.36c-.09.15-.2.21-.31.15s-.09-.1-.07-.13a4.55,4.55,0,0,1,.26-.53c.28-.49-.15-.45-.36-.58.18-.21.42-.44.21-.65s-.66-.22-.49-.59c.09-.2.58-.29.85-.49a1.85,1.85,0,0,0,.34-.53h0c.31,0,.47.25.79.2h0c.56.4.73,1.13,1.24,1.56.07-.74.07-1.78,1.06-1.93s1.26.82,1.81,1.34c.26.25-.13.72-.51,1A5.6,5.6,0,0,0,53.36,34.7Z"/><path class="cls-49" d="M50.12,34.47A1.5,1.5,0,0,1,51,34c.06,0,.16,0,.16,0s0,.27-.08.3a7.66,7.66,0,0,1-.72.35Z"/><path class="cls-28" d="M49.53,36.42,49.06,36a.64.64,0,0,1,.8.15l-.06.27-.27.05Z"/><path class="cls-28" d="M50.4,36.07l-.3.3h0q-.29,0-.23-.25v0Z"/><path class="cls-59" d="M32.78,14.73a2,2,0,0,1-.62-1.4,1,1,0,0,1,.41-1.07c.76-.57.1-.73,0-1,.27-.36.6-.73-.05-.8a9,9,0,0,1-.92-.06c-.4-.09-.42-.51-.55-.82s.31-.52.55-.73.33-.32.28-.5c-.21-.67.21-.62.59-.52a8.2,8.2,0,0,1,1,.38c.55.22.83-.17,1.08-.65-.11,0-.23-.06-.34-.1-.71-.29-.69-.29-.44-1s.13-1.05-.66-1c-.44.05-.91.26-1.22-.08l.64-.6a7.82,7.82,0,0,0-.89-2.9,1.14,1.14,0,0,0,.33-.9c-.07-.83,0-.87.68-1.21.43-.21.83-.62,1.32-.55a6.19,6.19,0,0,1,1.55.46c.62.38,1.12-.37,1.64-.42s.68.78,1.42.44l1.72-.81a.31.31,0,0,1,.35.26C40.11.87,38.37.92,37.28,1.82c-.25-.06,0,.36,0,.11,0-.08.07-.12.14-.05.7.66,2,.53,2.49,1.47a1.39,1.39,0,0,1-.28.49,3,3,0,0,1-.46.32l-.46.27c-.55.78.31.61.49.89s.56.32.51.73c-.82.71-1.81,1.29-1.93,2.56.66-.28,1.45-.8,2.19-.56a.57.57,0,0,1,.29.37c-.14,1-1,2.09,0,2.74a2.3,2.3,0,0,1-.75,1c-1.38.75-2.73,2.37-4.1.79-.38-.44-.52.51-.7.87a1.16,1.16,0,0,1-.26.48,5.18,5.18,0,0,1-1.46.49Z"/><path class="cls-40" d="M31.56,1.84a2.67,2.67,0,0,1,.89,2.9c-.37-.55-1.06-.62-1.66-.82-.35-.11-.39-.44-.13-.71s.45-.16.6,0a.3.3,0,0,0,.46.08.37.37,0,0,0,.08-.51C31.64,2.53,31.37,2.29,31.56,1.84Z"/><path class="cls-60" d="M39.23,11.95l1-.9c.5-1.05.77-2-.11-2.7h0a3.56,3.56,0,0,1-.44-2.39l-.78-.2c0-.58-.68-.87-.3-1.6l.32-.3a3.77,3.77,0,0,0,.56-.05h0c.65-.13,1.4-.26,1.61.35.34,1,1.18.61,2,.42l.47-.16c-.06-1-1-.31-1.49-.46-1.2-.37-1.72-1.39-.74-2.39s.73-1.86.9-2.79a1.91,1.91,0,0,1,.38-.47,3.06,3.06,0,0,1,.8-.38,5.44,5.44,0,0,0,1.8-.9c.29-.22.75-.52.82-.17.15.76.78.5,1.31.49l-.06.75c.57.06,1.28-.42,1.76,0,0,.44-.66.51-.75.94,0,.23-.34.5-.13.69s.46,0,.72-.08h0a.91.91,0,0,0,1.06.07c.54-.23.71-.44.54-.88s-.54-.71.11-1.14.8.11,1.16.26c.05,0,0,.23,0,.34s-.3.46-.09.47c.68,0,.52.67.7,1.06a.37.37,0,0,0,.62.11,2.9,2.9,0,0,1,1.72-.59c.39,0,.79-.13,1.17-.16s1.06-.8,1.45-.4,1,.07,1.37.33a3.15,3.15,0,0,0,2,.2h0c-.06.46-.69.68-.73,1.15.34.3.25.87.75,1.09a2,2,0,0,1-1.79.37C58,1.64,57.44.9,56,1.36a3.55,3.55,0,0,0-2.69,2.46L53,4.11c-.18,0-.37,0-.55.06l-.24-.22c-.46-.14-.44-.64-.5-1-.12-.66-.61-.77-1-.3-1.23,1.37-1.44.19-2-.2l-.36-.27c-.49-.41-1.31-.44-1.61-1.09a1,1,0,0,1,0-.34.89.89,0,0,1-.28.27.82.82,0,0,1-.46,0,1.24,1.24,0,0,1-.69-1.3c0-.76-.63-.5-1.07-.57-.06-.22-.28.35-.12.11.5,1,.12,2.66,1.92,2.55.74-.14,1.49-.25,1.43.73-.1,1.68.77,2.18,2.45,1.76a.42.42,0,0,1,.52.34h0a.71.71,0,0,0,0,.35c.25.93.9,1.9-.39,2.92A2.92,2.92,0,0,1,46,7.78c-.11-.14-.23-.25-.53-.06.41,1.1,1.76,1.08,2.54,1.73a.54.54,0,0,1,0,.49c-1.5,1.63-2.48.17-3.77.31,1,.29.78,1.5,1.44,2,.19.16,0,.66-.3.87a1.39,1.39,0,0,1-1.75,0c-.49-.25-.64.13-.76.53-.07.68.54.1.76.23.92.69,3,.59,1.58,2.88a1.62,1.62,0,0,1-.86.34,5.57,5.57,0,0,1-3-2.3c-.41-.7.33-2.4-1.62-1.76C39.43,13.17,39.11,12.54,39.23,11.95Z"/><path class="cls-61" d="M31.5,21.09a3,3,0,0,1,.79.6.69.69,0,0,1-.19,1c-.74.58-.06.72.07,1a2.85,2.85,0,0,1-1.16.14,3.76,3.76,0,0,0-1.93.36,2.07,2.07,0,0,1-2.31-.16c-.14-.08-.32-.25-.29-.38.3-1.15-.6-1.27-1.24-1.62a.67.67,0,0,1-.12-.12,1.07,1.07,0,0,1,.73-.35c.47,0,.54-.31.61-.65A1.27,1.27,0,0,0,26,19.72c.42-.93,1.26-1.77,1.29-2.79.48-.51.19-.64-.19-.78a.43.43,0,0,1-.15-.75c1-.62.78-1.36.88-2.09,1-.28,1.22.34,1.5.94h0A20.5,20.5,0,0,0,28,18.62a2.34,2.34,0,0,0,2.35,3.19C30.67,21.78,30.84,20.8,31.5,21.09Z"/><path class="cls-37" d="M29.3,14.25c-.38-.12-.8-.16-.93-.62-.05-.17-.37-.22-.56-.32a.71.71,0,0,1-.14-.8c.87.39.87.39,2.18.08Z"/><polygon class="cls-40" points="29.07 8.86 29.1 9.03 28.99 9.04 29.07 8.86"/><path class="cls-37" d="M31.5,21.09c-.2.18-.8.17-.45.63.1.13.32.18.22.4a.88.88,0,0,1-.67.48c-.27.05-.59.09-.66-.16-.29-1-1.23-1-2.08-1-.43,0-.42-.18-.43-.52,0-1.09-.41-2.12.49-3.32a1.06,1.06,0,0,0,.14-.76c-.21-1,.44-1.82,1.25-2.58a1.38,1.38,0,0,1,.49,1.69,4.5,4.5,0,0,0-.17,1.47c0,.29.21.35.51.27.57-.71,1,.11,1.53-.25a.84.84,0,0,1,.46.11,5.4,5.4,0,0,0,2.25,1.27c1.27.28,1.69,1.09,1.32,2.46l-.17.25c-.2.29-.41.58-.6.87s-.33.5-.61.54c-.46.08-.46-.3-.4-.6.12-.66-.68-.31-.78-.72.39-.5,1.18-.49,1.41-1.19-.84-.06-.83-.07-1.33-.7a3.35,3.35,0,0,0-.46-.49c-.13-.12-.3-.08-.51,0A1.55,1.55,0,0,0,31.5,21.09Z"/><path class="cls-62" d="M34.21,14.32l.32-.3c.59-.72,1.08-.23,1.62-.27a1.33,1.33,0,0,1,.41.14,1.56,1.56,0,0,0,.88,0,.85.85,0,0,1,.65.2,2.59,2.59,0,0,1-.84,1.76c2.22.12,2.16,2,2.48,3.62-.59.41-1.33.45-1.75,1.31a.84.84,0,0,1-1.43.28,1.34,1.34,0,0,1,0-1.09c.18-.7.36-1.16-.8-.94-1.69.33-2.07-.48-1.25-2.07.36-.69.71-1.32-.31-1.37a7.67,7.67,0,0,0-.77.25,1.65,1.65,0,0,1-.53.08c-.51-.09-.69-.38-.4-.94l.32-.3h0C33.26,14.67,33.73,14.31,34.21,14.32Z"/><path class="cls-37" d="M32.46,15a.76.76,0,0,0,.7.74,2.35,2.35,0,0,1-1.37,1.76h0c-.86,0-.77-.84-1.17-1.25a4.16,4.16,0,0,0-.27-2.69C31.13,14.07,31.47,15,32.46,15Z"/><path class="cls-63" d="M30.62,16.29a.61.61,0,0,1,.83.45c.09.28.22.53.34.8-.16.14-.32.29-.48.43-.35.29-.61.25-.76-.07a.34.34,0,0,0-.42-.21A3.23,3.23,0,0,1,30.62,16.29Z"/><polygon class="cls-59" points="32.52 11.23 32.33 11.3 32.34 11.2 32.52 11.23"/><path class="cls-64" d="M80.75,29.08a.71.71,0,0,0-.88-.06,3.3,3.3,0,0,1-2.57.6c.58.11,1.5-.15,1.36.75s-1,.75-1.63,1a4,4,0,0,0-1.31.59c-.9.48-2,.9-2.45.17s.34-1.43.92-2.07l.4-.44c.11-.15.23-.3.33-.46s.17-.33.24-.5c.5-.75-.11-1.42.29-2.17-.36.58-.12,1.24-.56,1.82-1.62.66-2.91.07-4.34,0a1.77,1.77,0,0,0-1.35-.14,10.07,10.07,0,0,1-1.45,0,2.7,2.7,0,0,1-1,0c-1.45-.66-.46-1.56.89-2.76-1.26.44-1.64,1.4-2.42,1.49a1.12,1.12,0,0,1-.54-1.1,4.42,4.42,0,0,1,2.06-2.88,20.23,20.23,0,0,0,3.66.69c1,0,1,.19,0,1.39.44.17.72-.25,1-.5,1.81-2,2-2,5.23-1.18a3.64,3.64,0,0,1,.43-.26,2.3,2.3,0,0,1,.46-.16c.33,0,.57,0,.53.41-.24.53.21.23.39.26.37.65,1.13.92,1.49,1.57h0c0,.66.44.68,1,.44h0c.87-.45,1.74-.91,2.41-.21l.05.24c-.2.21-.41.42-.58.65a.54.54,0,0,0-.09.37"/><path class="cls-65" d="M84.9,25.74c-.56.15-1.05.23-1.4-.16h0c0-.36-.56-.66.16-1.1l.56-.05c.69,0,.89-.53,1.22-1s.69-.61,1-.42c.55.35.71.76.41,1.19s-.48.54-.7.83"/><path class="cls-41" d="M76.83,21.07l-.56.05a3.91,3.91,0,0,0,.09-.55.32.32,0,0,1,.17-.27q.14-.07.17,0l.77.2Z"/><path class="cls-45" d="M76.7,20.27l-.34.3c-.3-.34-.23-.7.18-1.1A.68.68,0,0,1,76.7,20.27Z"/><path class="cls-41" d="M80,25.1c-.28-.25-.59-.21-1,0s-.73.09-.6-.45.25-.88-.32-1c-.18,0-.26-.07-.23-.25s.06-.37-.24-.25-.37,0-.55.05h0c-.33.14-.65.17-.77-.11a.68.68,0,0,1,.39-.93l.32-.3a1,1,0,0,0,.88-.36l.55-.05c.19.21.46.37.54.63.24.78.82.6,1.5.26.14.58.14.58-.48.87s-.63.5-.3.82c.16.15.35.34.62,0s.65-.8,1.16-.77a.57.57,0,0,1,.39.26c0,.06,0,.24-.12.35C81.29,24.55,80.52,24.61,80,25.1Z"/><path class="cls-41" d="M83.66,24.48l-.16,1.1a4.11,4.11,0,0,0-2.46,0,7.28,7.28,0,0,1,1.13-.94c.48-.26.36-.69.72-1.06Z"/><path class="cls-41" d="M81,25.55c-.13.17-.23.4-.39.49-.31.17-.42-.09-.56-.25a.65.65,0,0,1-.08-.69Z"/><path class="cls-66" d="M66.67,23.13c-.56.28-.29.93-.83,1.27a2.89,2.89,0,0,0-.95,1.35.43.43,0,0,1-.45.29,1.78,1.78,0,0,1,.2-2.39,19.11,19.11,0,0,0,1.31-2.32,11.14,11.14,0,0,0,1.74-.77c.37-.18-.15-.28,0-.14-.51.45-1,.73-1.58.47A2.24,2.24,0,0,1,65.67,19c.38-.58.68-.37,1-.16.07.11.11.32.33,0,.44-.44-.35-.65.08-1.08a5.2,5.2,0,0,1,2.81-2,.83.83,0,0,1,.52,0,1.19,1.19,0,0,0,1.42,0c.52-.31.92-.31.91.34a1.89,1.89,0,0,1,.37,1.05,5.26,5.26,0,0,0-.9,2.25,1.2,1.2,0,0,1-1-.07c-.5-.24-1-.53-1.09.56.35.77,1,1.49-.19,2.52S67.77,22.14,66.67,23.13Z"/><path class="cls-45" d="M76.65,22.18c-.3.79-.3.8.38,1l-.11.57c-.07.37-.38.47-.56.35a2.93,2.93,0,0,1-.67-.72c-.26-.33-.55-.32-1,.06s-.65.23-.89-.12-.56-.44-1,.19c-.32.48-.53,1-1.22,1-.64-.46-.13-1.08.18-1.67.29-.37.29-.9.82-1.13a.58.58,0,0,0,.67-.33c.2-.52.7-.69,1-1s.34-.17.47,0a3.8,3.8,0,0,1,.62.75c.38.85.35.86.88,1C76.43,22.11,76.54,22.15,76.65,22.18Z"/><path class="cls-67" d="M72.62,21.75l-.18,1.1c-1.06.09-2.9,1.62-2.59-.83a1.47,1.47,0,0,0,.49-.84c0-.38-.3-.41-.51-.55a.58.58,0,0,1-.18-.76,1.47,1.47,0,0,1,1.75-.71.68.68,0,0,1,.79.2h0c-.18.68.5.81.61,1.3Z"/><path class="cls-45" d="M72.8,20.65h-.37c-.77,0-.9-.12-.62-.79a2.71,2.71,0,0,1,.38-.51C73.08,19.66,73.08,19.66,72.8,20.65Z"/><path class="cls-45" d="M76.36,20.58l-.09.55Z"/><path class="cls-68" d="M36.72,20.86c.81.24,1,.12,1.17-.6,0-.18,0-.36,0-.55.09-.5.4-.7.8-.5s.5.44.95.3a1.72,1.72,0,0,1,1.76.46c.72.71,1.27,1.55,2.85.64.85-.49.86,1.05,1.81.84.25.27.22.7.38,1a.62.62,0,0,1,0,.44c-.19.28-.31.66-.74.57a2.58,2.58,0,0,1-.68-.21.92.92,0,0,0-1.08.08c-.31.22-.76.37-.92.16-.56-.78-.92-.19-1.43.4-.33.38-.68.36-2.09.3l.08-1.64a3.06,3.06,0,0,0-1.82,1c-.23.18-.51.3-.73.15a2,2,0,0,0-1.37-.31c-.41,0-.51-.44-.13-.8.68-.62.11-.75-.06-1h0A.88.88,0,0,1,36.72,20.86Z"/><path class="cls-69" d="M53.53,28.46a3.6,3.6,0,0,0-.16-.69c-.12-.27-.38-.52-.73-.24-.63.49-.88-.24-1.38,0-.76.32-.75-.36-1-.63-.48-.43-.76-.28-1.18.65-.32.38-.55.28-.76,0-.09-.66.31-1,.94-1.15l.64-.6A10.73,10.73,0,0,1,55,27.06c.67.4,1.52.65,1.9,1.41,1.21.55,1.92,1.7,3.2,2.17.42.15.54.56.08,1.08A2.62,2.62,0,0,1,57,31.3c-.07-.08,0-.27,0-.33s-.19.07-.25.2c-1.19.58-1.86,0-2.76-.33C52.54,30.41,54.06,29.08,53.53,28.46Z"/><path class="cls-70" d="M56.45,29a5.18,5.18,0,0,0-.43-.92c-.18-.26-.76.4-.79.05-.11-1-1.15-.75-1.72-1.12a2.22,2.22,0,0,0-2.07-.28c-.51.17-.66-.09-.76-.46a.58.58,0,0,0-.82-.44c-.11-.5.61-.9.5-1.4a.76.76,0,0,1,.33-.47c1.24-.33,2.34-.32,3,.6A1.13,1.13,0,0,0,55,25c.33-.07.9-.19.9,0,.06,1.79,1.58.37,2.35.56l.22.1a.61.61,0,0,1,.2.41,11,11,0,0,0-.72,1.75C57.74,28.67,57.08,28.82,56.45,29Z"/><path class="cls-71" d="M46.5,22.9l-.23-.24a.81.81,0,0,1,.14-.76,13.85,13.85,0,0,1,2.8-.15c.18.72,1.91.49.88,2l-.2.23c-.2.38-.4.77-.91.75-.13,0-.32,0-.37,0-.34-.5-1-.44-1.52-.63-.31-.11-.11-.54-.09-.85S46.8,22.82,46.5,22.9Z"/><path class="cls-48" d="M49.22,26.43c-.34.34-.78.65-.73,1.16s.55.67-.17,1.1c-.23-.17-.46-.35-.81,0s-.36.81-.65.57-.76-.36-.63-.9a7.8,7.8,0,0,1,.39-1.13c0-.09.21-.16.32-.24.29-.22.56.58.88-.21.17-.43.67-.48.94-.81Z"/><path class="cls-20" d="M32.6,26.12l.47.5c-.56.5-1.11.34-1.66.38-.24,0-.27-.33-.06-.58a1.18,1.18,0,0,1,1-.55Z"/><path class="cls-71" d="M50.67,24.12l-.32.3-.47-.49h0C50.43,23.4,50.58,23.7,50.67,24.12Z"/><path class="cls-18" d="M48.31,28.68l.17-1.1.55-.05c.67-.06.3.52.33.82.06.58,0,.59-.82.59Z"/><path class="cls-46" d="M42.06,28.46a.71.71,0,0,1,.27-.66.87.87,0,0,1,.33-.09c0,.06,0,.13-.05.17-.18.2-.37.39-.55.58Z"/><path class="cls-49" d="M57,30.83a4.34,4.34,0,0,0,3.16.78.42.42,0,0,1,.42.15.58.58,0,0,1-.17.68c-.21.06-.37,0-.39-.19-.09.24.13.27.22.39.29.4.84.62.69,1.31a2.1,2.1,0,0,1-.81.86,1.72,1.72,0,0,1-1.47.08,9.56,9.56,0,0,0-5.26-.19h0c-.19-.31-.35-.63.24-.93.38-.19.77-.34,1.14-.54a.51.51,0,0,0,.2-.33.28.28,0,0,0-.17-.26c-.23-.06-.49,0-.73-.09a.56.56,0,0,1-.5-.77c0-.17,0-.27-.15-.22a.67.67,0,0,0-.33.23c-.33.57-.55,1.13-.11,1.58,0,0-.08.25-.16.32s-.3.16-.37.12c-.74-.48-1.46-1-1.32-2.12a6.34,6.34,0,0,0,1.25-1.46c.34-.6.78-1.17,1.18-1.75a2.88,2.88,0,0,1,.52.14c.61.3.59.47-.1,1.05-.17.14-.4.26-.36.47s.33.33.59.24c.61-.21.84,0,.78.55,0,.19.14.43.31.29.61-.51,1.14.05,1.71-.37Z"/><path class="cls-49" d="M51.11,31.67a.67.67,0,0,1-.79-.2A.66.66,0,0,1,51.11,31.67Z"/><path class="cls-20" d="M31.85,28.22c-.18.13-.39.27-.46,0a.44.44,0,0,1,.16-.33c.1,0,.23,0,.34.07S32.06,28.12,31.85,28.22Z"/><path class="cls-20" d="M29.66,27.49c.11-.08.21-.18.32-.25s.16-.06.18,0,0,.24-.14.28A1.36,1.36,0,0,1,29.66,27.49Z"/><path class="cls-20" d="M33.56,26.66l-.06.18c-.1,0-.21-.06-.31-.1s-.15-.16.07-.16A1,1,0,0,1,33.56,26.66Z"/><polygon class="cls-39" points="29.36 25.9 29.39 26.07 29.28 26.08 29.36 25.9"/><path class="cls-60" d="M53.71,6.75c.32-.05.84-.5.78.21-.48,1.83-.17,3.26,1.28,4.11a1,1,0,0,1,0,.53,5.25,5.25,0,0,1-2.41,1.64c-.78.34-.51-.74-1.05-.81a.9.9,0,0,1-1.27.82.63.63,0,0,1-.37-.32c0-.14.05-.4,0-.44s-.21,0-.08,0,.1.14,0,.28c.29,1.11.28,2.34.57,3.43.12.51.39-.18.56-.08a.47.47,0,0,1,.45.4,1.65,1.65,0,0,1-1,1.31,3.89,3.89,0,0,0-2.93.59c-.4-1.46-2-1.92-2.58-3.25a1.16,1.16,0,0,1,.13-1.5,13.55,13.55,0,0,0,2.28-4c1.5-2.14,1.72-2.13,3.48.15C52.35,8.89,51.39,6.94,53.71,6.75Z"/><path class="cls-72" d="M53.71,6.75c-.24.16-.47.34-.72.48a.77.77,0,0,0-.5.79,7.54,7.54,0,0,1-1,3c-.47-.76-.92-1.49-1.39-2.21-.26-.39-.7-.37-1.11.14a2.51,2.51,0,0,1-1,.8c-.63-.17-1.44-.15-1.83-.55a3.41,3.41,0,0,0-1.44-.87c-.27-.09-.29-.31-.15-.6s.27-.65.68-.77a.84.84,0,0,1,1.16.68c.21.71.77,1,1.56.65a7.75,7.75,0,0,0,1-.46c.44-.24,1,0,1.33-.43s0-.83,0-1.25a8.54,8.54,0,0,1,.2-1.53,4.91,4.91,0,0,1,1.95,1.44c0,.12,0,.24-.06.36a3.22,3.22,0,0,0,.07-.36C53.17,5.89,53.34,6.47,53.71,6.75Z"/><path class="cls-72" d="M46.76.66c.36.31.57.82,1.26.69s.58.39.7.75c.85-.25.74.53,1,.88.17,0,.26,0,.33-.18.53-1.13.52-1.12,1.48-.76.2.08.71,0,.61.13-.49.77.54,1.05.08,1.77-.7.21-1.18-.34-1.89-.11h0a.67.67,0,0,1,.15.8,1.28,1.28,0,0,0-1.12.16,1.36,1.36,0,0,1-1.6,0,1.09,1.09,0,0,1-.66-1.28c.06-.3-.15-.58-.1-.88.12-.69-.15-.68-.7-.35-.1.06-.25,0-.37,0,.08-.48-.24-1,.5-1.4Z"/><path class="cls-73" d="M53.36,3.82a.85.85,0,0,1,0-1c.36-.59.73-1.18,1.13-1.81.36.11.63.21.91.27a.75.75,0,0,0,.88-.32c.46-.91.72-.2,1.1-.25,1.11-.15,1.26.56,1.48,1.27a3.37,3.37,0,0,1-.8,1.19c-.23.18-.47.36-.71.25-.89-.4-1.19.44-1.61,1A1.74,1.74,0,0,0,53.36,3.82Z"/><path class="cls-74" d="M55.7,11.45a2.07,2.07,0,0,0-2.33-1c-.26-.43.15-.64.33-.88a1.16,1.16,0,0,0,.22-1.25c-.27-.55.16-.94.58-1.34a.87.87,0,0,1,.13.11c.28.37.78-.43,1-.1a8.12,8.12,0,0,1,.58,1.17c-.21.69.44.85.6,1.3l.24.25a2.1,2.1,0,0,1-.48,1.9A.73.73,0,0,1,55.7,11.45Z"/><path class="cls-75" d="M64.8,10.85c-.29.49-.62,1-.87,1.46a1.3,1.3,0,0,1-1.35.75c-.48,0-.59-.29-.49-.74s-.18-.67-.41-.92c-.46-.5-.92-1-1.39-1.48l.49-1.14c.24.25.37.54.62.63.55.19.26,1.15,1,1.09A9.66,9.66,0,0,0,63.92,10C64.66,9.84,64.72,10.36,64.8,10.85Z"/><path class="cls-74" d="M59.43,10.28c.91.15.54,1,.52,1.6,0,.18-.28.26-.48.29-.46.06-.6.36-.39.63s.1.52-.18.79c-1.85.7-2,.58-2.15-1.42,1.13-1.83,1.19-1.88,2.45-2.13Z"/><path class="cls-54" d="M59.2,10c-1,.44-1.48,1.42-2.25,2.1a.49.49,0,0,1-.4-.09l-.1-.18,0-.23a5,5,0,0,1,.58-1.95c.58-.37,1.16-.76,1.75-1.12s.88-.09.9.4A1.48,1.48,0,0,1,59.2,10Z"/><path class="cls-53" d="M63.2,7.21a2.64,2.64,0,0,0-.61,1.07c-.2.52-.42.57-.84.29l-.56-.36c-.27-.18-.38-.36,0-.74a2.78,2.78,0,0,0,.37-.72c.07-.15.27-.24.3-.13.2.6,1.06.14,1.34.59Z"/><path class="cls-54" d="M56.83,9.45c-1-.15-1.14-.35-.6-1.3l.56.33C57.25,8.74,57.25,8.74,56.83,9.45Z"/><path class="cls-54" d="M65.47,8.34q.72-.21.47.49Z"/><path class="cls-73" d="M52.49,4.16,53,4.11Z"/><path class="cls-25" d="M59.9.48c0-.51.39-.81.73-1.15a1,1,0,0,1-.41.86Z"/><path class="cls-66" d="M66.73,14.19l.23.25c1.8.57,1.83,1.12.17,3.28a10.05,10.05,0,0,1-2.43,1.22c-.13.6.83,1-.16,1.75a1.29,1.29,0,0,1-1,.1,1.94,1.94,0,0,0-2,.87,2.73,2.73,0,0,1-.46.37c-1,.62-1.8,1.09-2.25-.21-.36-1-1.64-1.11-2.7-1-2.37.32-2.38.42-2.66-1.75a1.81,1.81,0,0,1,.56-1.3,1.15,1.15,0,0,1,.74-.32c.35.13.25.44.14.75l-.17.37c.29.07.26-.29.44-.36C56.9,17,57.13,17,57.4,18.81c.65-.68.29-1.71,1.29-2.23.48.08.45-.38.65-.61.7-.35,1.07,0,1.46.35,1.15.93,2.49.73,4-.32.22.18.45.33.73-.11.07-.11.17-.26.16-.36C65.62,14.81,66.3,14.58,66.73,14.19Z"/><path class="cls-76" d="M58.7,16.58a7,7,0,0,0-.61,2.67c-.58.13-1.11.37-1.45-.09-.16-.21-.27-.37.08-.6s.3-.55.09-.75-.41-.29-.63.07a2.44,2.44,0,0,1-1.39,1c-.17,0-.24-.08-.23-.24s.38-.54.4-.85l-.55.05a.53.53,0,0,1-.59-.34,1.33,1.33,0,0,1,.29-1c.28-.35.7-.55,1-.91a.79.79,0,0,0,0-.4c-.34-.29-.77.06-1.15.11a.48.48,0,0,1-.45-.13c-.32-1.63,1.32-2.48,2.19-3.64h0a.67.67,0,0,1,.79.2h0c0,.2,0,.27.23.25l.24.24c.07.28.13.56.22.84.16.54.45.87,1.2.56.16-.07.36,0,.53,0h0a4.55,4.55,0,0,0-.08.55,7.3,7.3,0,0,0-1,.77c-.22.24-.44.6-.15.85S58.35,16.31,58.7,16.58Z"/><path class="cls-77" d="M64.79,16c-.22.88-.22.88-.9,1a8.42,8.42,0,0,1-1.57.35c-.42,0-1.15.25-1.19-.12-.07-.63-1,0-1-.75,0-.45-.51-.39-.82-.53a2.14,2.14,0,0,0,.2-.75c-.13-.7.45-.89.92-1.16.19-.11.4-.14.48.05a.66.66,0,0,1-.07.36c-.06.18-.15.36-.21.53.57.35,1.31-.75,1.81-.18.36.4,1.1.36,1.24,1.06.07.34.35,0,.56-.18C64.83,15.24,64.65,15.85,64.79,16Z"/><path class="cls-74" d="M58.82,14.13l.08-.55Z"/><path class="cls-78" d="M71.17,41c-.15-.17-.35.06-.39.25-.12.56-.78.84-.93,1.37h0c-.72,0-.55-.54-.38-1,0,0-.08-.09-.13-.11A6.35,6.35,0,0,1,67,40.17c.19-.55-.17-.79-.41-1.09s-.13-.68.19-1A1.36,1.36,0,0,1,67,37.5c2.23-1.39,1.32,1.06,2,1.47.66-.1.41-.46.47-.71.3-1.33.5-1.2,1.78-1.05,1,.11,1.39.8,2.14,1.09"/><path class="cls-50" d="M53.36,34.7c1.92-.92,1.91-.9,4.26-.36a21,21,0,0,0,2.3.27c.88.72.4,1.91.35,3a9.52,9.52,0,0,1-2-.45,12.61,12.61,0,0,0-2.71-.65c-.25,0-.66.35-.5-.26.11-.43.19-.86.29-1.29C54.21,35.47,54.21,35.47,53.36,34.7Z"/><path class="cls-79" d="M60.27,37.57a1.2,1.2,0,0,1-.38-1.1,11.94,11.94,0,0,0,0-1.86l1-.91c.61-1.13,1.07-.52,1.48-.21.7.53,1.37,1.11.32,2.31l-.26.22a1.24,1.24,0,0,1-1,1.27C61,37.38,60.65,37.64,60.27,37.57Z"/><path class="cls-79" d="M66.05,37.3c-1.1.74-2.25.75-3.39,1.14,0-.72.62-1.2.75-1.83l-1-.59v0c1.53-1.62,2.42-.76,3.32,0a.83.83,0,0,1,.44,1Z"/><path class="cls-79" d="M67.08,37.72l-.33.31-.69-.73v0c.12-.37.39-.63.73-.57C67.35,36.78,67.25,37.25,67.08,37.72Z"/><path class="cls-56" d="M67,40.17l-.31.3a.22.22,0,0,1,.13-.31C66.83,40.14,66.89,40.17,67,40.17Z"/><path class="cls-54" d="M67,17.68a5.59,5.59,0,0,0,.95-2.42c0-.39-.2-.22-.49-.1-.71.3-.73.24-.48-.73a1,1,0,0,0,.38-.07c.44-.28.11-.78.49-1.06a.8.8,0,0,0,.35-1c-.06-.33.33-.63.65-.58s.43,0,.48.16c.26.56.82.67,1.36.89s.75.66,1.09,1,.09.57,0,.89c-.17.58,0,.57.59.38s.61-.11.36,1a.64.64,0,0,0-1,.07c-.24.26-.42.56-.68.91-.64-.2-.52-1-1-1.27.23-.82.39-1.6-.87-1.66.2.68,1.09.85.87,1.66-.27.28-.18,1-.89.73-.26-.11-.47.08-.67.27l-1.24,1.16C67,17.94,67,17.86,67,17.68Z"/><path class="cls-80" d="M71.44,45.5a.35.35,0,0,1,0-.5"/><path class="cls-58" d="M69.47,41.56c.1.36.1.78.38,1-.48.38-.84,1-1.52,1,0-.19,0-.27-.22-.24C68.16,42.48,69,42.12,69.47,41.56Z"/><path class="cls-78" d="M68.11,43.31c.26-.09.33,0,.22.24l-.11-.12Z"/><path class="cls-81" d="M72.42,38.46c-.13-.09-.3-.23-.29-.37,0-.72-.4-.57-.9-.29-.12.07-.22.21-.34.26s-.3-.07-.25-.27.44-.51.15-.63-.52.14-.74.31a.43.43,0,0,0-.12.67c.38.41.23.87-.17,1.39s-.46.47-.75.17-.14-.63-.65-.35-.6.08-.44-.36a3.85,3.85,0,0,1,.32-.55.61.61,0,0,0-.12-.83c-.3-.31-.66-.17-1,.13,0-.11,0-.23-.08-.33-.17-.55-.18-.56-.94-.12-.09-.36-.1-.78-.38-1l.05-.25a1.77,1.77,0,0,1,.6-.59,10.52,10.52,0,0,1,1.21-.7c.81-.48.9.93,1.79.24l.21-.18a1.28,1.28,0,0,1,.51-.17"/><path class="cls-49" d="M50.81,35.22c.06,0,.18-.08.18-.06s0,.13-.18.07Z"/><path class="cls-82" d="M41.16,20.42c-.33-.52-1.05-.54-1.49-.92-.37-.7-.77-1.39-1.09-2.12-.13-.29.06-.76-.37-.91a1.55,1.55,0,0,0-1.48.14.87.87,0,0,1-.38.15c-.21,0-.36-.11-.25-.33A2.65,2.65,0,0,1,37.57,15c.48-.18.39-.48.2-.74.48-1,.8-.69,1.21-.21s.34,1.39,1,1.75c-.93-2.47-.93-2.47-3.52-1.68a7.1,7.1,0,0,1-1.9-.09c-.06-.09-.16-.17-.18-.29-.18-1.2,0-1.43,1.29-1.68.45-.09.47.14.5.49.07.8.32.88,1.07.56s1.27-1,2-1.15l.23.25c.9.87.9.87,2-.44.31.28-.12.71,0,1a5.07,5.07,0,0,1,.28,1,3.34,3.34,0,0,0,.16,1.06c.21.43.35.87,1.07.59.54-.21.71.09.64.53-.11.68.34.8.83.9l0,.24a.74.74,0,0,1-.85.64,1.65,1.65,0,0,0-1.59,1l-.21.5C41.65,19.68,41.7,20.17,41.16,20.42Z"/><path class="cls-83" d="M40.45-.91c1-.82,1-.82,2-.45,0,.25-.11.51-.13.76s.07.35.31.21.37-.26.49-.08a.56.56,0,0,1-.12.7,3.43,3.43,0,0,1-.8.71,2,2,0,0,0-.86,1.16c-.31.73-.17,1.12.44,1.31A2.19,2.19,0,0,0,43,3.53a2,2,0,0,1,.58-.1c.49,0,1.24.69,1,.88a1.64,1.64,0,0,1-1.29.47c-.42.42-.88.28-1.32.43s-.75.54-1.12.38-.15-.64-.14-1-.1-.46-.39-.46a1.25,1.25,0,0,1-1-.34c.18-.8.18-.8-.42-.58-1,.37-1.2.3-1.34-.47s-.11-.66-.92-.21l-.38.15c.35-.52.64-.93.9-1.34s.85-.4,1.24-.65A4.38,4.38,0,0,0,40.45-.91Z"/><path class="cls-83" d="M39.64,5.95a2.78,2.78,0,0,1,.44,2.39A2.94,2.94,0,0,0,38,9a3,3,0,0,1-.55.33c-.28.16-.52.15-.68-.06s0-.32.11-.5c.38-.51.73-1,1.11-1.56.21-.29-.3-.55.14-.79.21-.12.5,0,.75,0A3.75,3.75,0,0,0,39.64,5.95Z"/><path class="cls-83" d="M40.08,8.34c.22.15.85-.22.75.12-.19.64.71.72.27,1.44A5.11,5.11,0,0,1,40.19,11c-.5-.49-1.29-.44-2-.59,0-.35.27-.47.49-.51C39.65,9.75,39.85,9,40.08,8.34Z"/><path class="cls-83" d="M38.56,4.15a1.76,1.76,0,0,1,.3,1.6c-.3-.15-.61-.28-.89-.44a.47.47,0,0,1-.23-.72A.81.81,0,0,1,38.56,4.15Z"/><path class="cls-82" d="M34.21,14.32a1.36,1.36,0,0,1-1.42.41C33.58,14,33.58,14,34.21,14.32Z"/><path class="cls-40" d="M35,7.56l-.06.18a3.16,3.16,0,0,1-.31-.1c-.18-.08-.15-.16.07-.16A.94.94,0,0,1,35,7.56Z"/><path class="cls-83" d="M39.44,3.8l-.56.05Z"/><path class="cls-84" d="M48,9.75a2.57,2.57,0,0,1-.56,2c.22.53,0,.84-.61,1.24a8.73,8.73,0,0,0-1.34,1.53,5.22,5.22,0,0,1,1.66,2.39l.5-.59c.09-.1.19-.25.29-.28s.21.08.25.16a1.56,1.56,0,0,1,0,1.29.79.79,0,0,0,.11.86c-.49,1.58-.74,1.69-2.3,1a1.1,1.1,0,0,1-.31-.35c-.11-.82-.9-1.29-.68-2.27a7.59,7.59,0,0,0,.32-.76c.06-.18.11-.51,0-.53-.81-.24-1.09-1.13-2-1.27a.71.71,0,0,0-.19,0,.32.32,0,0,1-.34-.16,3.5,3.5,0,0,1,0-.44.94.94,0,0,1,.13-.45,1.92,1.92,0,0,1,.54-.54,1.26,1.26,0,0,1,.46-.11c.09.2.06.52.38.5a4,4,0,0,0,1-.2.81.81,0,0,0,.07-.52c-.16-.38-.64-.2-1-.28-.17,0-.27-.12-.16-.38.42-1,.4-1-.46-.83-.12,0-.29.1-.34,0a.33.33,0,0,1,0-.34,11.23,11.23,0,0,1,1-1.13c.22-.22.56-.26.64,0,.19.65.48,1.05,1.36.53.06,0,.23,0,.29.12C47.21,10.71,47.62,10.08,48,9.75Z"/><path class="cls-85" d="M46.45,1c-.21.46,0,1-.5,1.4-1.16.24-1.4-.8-2.12-1.18-.18-.09-.1-.31,0-.51.11-.37.46-.76.33-1.12s-.55-.21-.53-.67c.42,0,.84-.08,1.25-.08s.86-.55,1.37-.41c.18.53-.71,1.1-.43,1.61A8.64,8.64,0,0,0,46.45,1Z"/><path class="cls-82" d="M45,16.81c.46.33.5,1,1,1.3.33.2-.12.72,0,1.05-.3.62-.67.77-1,.29a4,4,0,0,1-.56-2.58h0Z"/><path class="cls-82" d="M44,12.57l-.32.3a.69.69,0,0,0-.64.61h0l-.07.25-.25.06c-.23-.31-.48-.68,0-1.09S43.68,12.19,44,12.57Z"/><path class="cls-82" d="M43,14l.23.25a1.64,1.64,0,0,1-.36.13c-.51,0-.51,0-.1-.63C43,13.75,43,13.84,43,14Z"/><path class="cls-72" d="M46.58.08a1.34,1.34,0,0,1,.18-.14c.07.05.19.11.18.18s-.07.45-.18.52,0,.08-.08-.12A1.36,1.36,0,0,1,46.58.08Z"/><path class="cls-25" d="M51.52-.07a3.13,3.13,0,0,1,.31.36.57.57,0,0,1,.07.29c-.23.14-.35,0-.39-.14a1.82,1.82,0,0,1,0-.51Z"/><path class="cls-86" d="M36.72,20.86l-1.2.65a3.35,3.35,0,0,1-.15-.89c.07-.81-.22-1.26-1-1.31s-1.36-.64-2.07-.89c-.39-.14-.37-.55-.47-.88a4.56,4.56,0,0,1,1.37-1.76h0a.68.68,0,0,0,.64-.6,1.83,1.83,0,0,1,1.63.07.31.31,0,0,1,.18.44c-.25.57-.51,1.13-.82,1.68-.17.31-.8.5-.45.94.52.64.86.74,1.58.39.3-.14.54-.49.9-.48A1.31,1.31,0,0,1,37,19.91,4.51,4.51,0,0,0,36.72,20.86Z"/><path class="cls-46" d="M31.43,18.68c0,.11.11.23.06.31a.42.42,0,0,1-.33.15c-.07,0-.12-.21-.07-.3S31.31,18.74,31.43,18.68Z"/><path class="cls-87" d="M36.43,14.11c.6-.39,1.2-.8,1.81-1.17s.94-.29,1,.36a3.33,3.33,0,0,0,0,.54c.15.45,1,.26.91.91a1.18,1.18,0,0,0,.55,1.19s0,.24-.07.34-.21.14-.34.09c-.44-.17-.88-.32-1.33-.47s-.51-.33-.23-.7c.48-.62-.06-.8-.21-1.11s-.54-.07-.83.16l-.56.05C36.91,14.32,36.49,14.6,36.43,14.11Z"/><path class="cls-82" d="M36.43,14.11l.79.2C36.5,14.78,36.42,14.76,36.43,14.11Z"/><path class="cls-37" d="M33.8,15.17c0,.46-.19.66-.64.6Z"/><path class="cls-88" d="M73.74,34.8c-.35.45-.79-.22-1.11-.51.11-1.13-.83-1-1.57-1.18-.09-.28.16-.63,0-.87-.22.16-.25.39-.34.59-.68,1-1,.36-1.32,0a9.58,9.58,0,0,0-5.1-2.65c-.82-.16-1.12-.75-1.42-1.38-.68-1.42-2.05-2.08-3.43-2.73a2.12,2.12,0,0,1-.5,0L58.76,26a.62.62,0,0,0-.44-.12h0c-.16-.7-2.41.68-1.32-1.27,1.82-1.09,3.43-.47,5.13-.62.4,0,1,.14.95.6-.29,1.34.87,1.12,1.48,1.5l.32-.28c.29.25.28.67.38,1,.63.47.13.87-.43,1.36.7.08,1.49-.34,2.15-.17l.87-.35c2.11,1.18,3.91,2.93,7,2.3-.6.59-1.34,1.13-1.31,2a2.63,2.63,0,0,0,2.55-.84.7.7,0,0,1,1-.06"/><path class="cls-89" d="M78.45,31.62a1.39,1.39,0,0,0-.62-.28c-.33,0-.39.34-.59.53s-.36.34-.49.22,0-.34,0-.52a.45.45,0,0,1,.11-.18l.28-.33c.3-.53,1.23-.07,1.22-.76,0-.51-.85-.19-1.28-.33a2.78,2.78,0,0,0-.58,0A1.44,1.44,0,0,1,78,29.26a1.48,1.48,0,0,0,1.57-.63c.16-.22.61-.45.86-.18s.53.2.85.19"/><path class="cls-90" d="M74.88,29.93a1.33,1.33,0,0,0-1.13.33,1.23,1.23,0,0,1-1.81.24,12.41,12.41,0,0,0-1.12-.74c-.28-.12-.77.09-1-.05s0-.57-.31-.72-.77-.47-1.18-.66-.34-.42-.45-.69c.55-.25.8.38,1.35.14.48,0,.82.3,1.34.14s1.24.27,2,0a1.22,1.22,0,0,1,1.32.3c.3.28.66.14,1-.15.53.12.43.59.39,1v0q0,.27-.08.54Z"/><path class="cls-91" d="M69.85,22c.11.26.22.53.35.78s.52.49.92.11c.59-.56,1-.39,1.32-.06-.56.5-1,1-.81,1.71,0,.19-.09.39-.1.57s-.2.63-.46.5a6.3,6.3,0,0,0-2-.26c.26-.63.72-.42,1.05-.6a2.37,2.37,0,0,0,.52-.36.49.49,0,0,0,.14-.35.25.25,0,0,0-.24-.17,4.89,4.89,0,0,0-.57.24c-.19.07-.39.11-.58.18-.76.26-.53-1.06-1.45-.6s-.93-.3-1.32-.58c.31-.29.62-.59.93-.87s.54-.4.78-.08C68.76,22.7,69.3,22.47,69.85,22Z"/><path class="cls-92" d="M67,28c-1,.55-2,.95-2.92.38a.32.32,0,0,1-.1-.47c0-.08.21-.13.32-.18s.12,0,.18,0c.75-.06.75-.07.8-1a5.17,5.17,0,0,1,2.36-2c.24.24-.07.57-.1.85s.47.61,0,1c-.21.18-.61.07-.92.16s-.35.29-.25.46A8.57,8.57,0,0,0,67,28Z"/><path class="cls-93" d="M75.29,29.07c-.3-.25-.28-.67-.39-1-.43-.48,0-1.07.24-1.6.18-.33-.13-1.07.66-1,.54.07.13.57,0,.92s0,.58.09.86A1.93,1.93,0,0,1,75.29,29.07Z"/><path class="cls-88" d="M70.55,27.91c-.57.48-1.06.43-1.34-.14C69.94,27.35,69.94,27.35,70.55,27.91Z"/><path class="cls-41" d="M81.56,26.79c-.06,0-.15,0-.19,0s0-.58.21-.7.25,0,.25.15A.65.65,0,0,1,81.56,26.79Z"/><path class="cls-45" d="M77.82,23.42l.23.25C77.76,23.79,77.68,23.71,77.82,23.42Z"/><path class="cls-45" d="M77,23.22l.55-.05Z"/><path class="cls-88" d="M75.19,29.63l.08-.54Z"/><path class="cls-94" d="M64.57,26c-.58,0-1.16.12-1.73.11s-.76-.28-.31-1c.11-.17.2-.34.31-.52l-1.35-.48a.73.73,0,0,0-.89.27c-.27.35-.58.54-.76.18s-.68-.39-1.14-.28-1,.44-1.53.24c-.21-1.5-2-1.21-2.72-2.16-.08-.13-.16-.25-.25-.38-.91-.59-2.71.12-2.93-1.47,0-.06.05-.16,0-.18-1.36-.94-1.36-.94-.43-2.53.41-.45,1.06-.77,1.05-1.46.51-.61,1.28-.74,1.84-1.26h0c.63,0,1.51-.76,1.9.09h0c-.09.76-1.09.56-1.29,1.21l-.41.85c-1.29.66-.11,1.09-.26,1.64.14.24.45.48.39.72-.23.89.39,1,.9,1.23.17.07.47,0,.52-.12.37-1.19.85-.79,1.34-.44s1.19.09,1.74.35,1.18.67.82,1.66c.67-.13,1.18-.72,1.76-.59.56.74,2-.94,2.36.23,0-.11-.13-.14-.14-.25,0-.64.36-.94,1-1.1.46-.49.42-.75-.07-1s-.54-.35-.12-1.15a.59.59,0,0,1,.29.05c0,.08.06.17.09.25h.29l.31,0h.16a.87.87,0,0,1,.31,0l.12.09a3,3,0,0,1,.53,1.85c0,.18.09.35-.09.55a2.72,2.72,0,0,1-1.08,2.44,1.24,1.24,0,0,0-.52,1.22C64.58,25.3,64.56,25.67,64.57,26Z"/><path class="cls-95" d="M64.36,18.75l-.23-.25L67,17.68l.23.25c-.07.24.06.24.26.27.36.06.39.34.09.57s-.56.37-.84.56c-.27-.26-.47-.62-1-.44h0a5.45,5.45,0,0,0-.55,0h0L64.6,19h0C64.42,19,64.34,18.93,64.36,18.75Z"/><path class="cls-95" d="M66.14,21.29l.09-.55a1.94,1.94,0,0,0,1.83-1.15c.07-.15.32-.25.5-.36a.2.2,0,0,1,.18,0,.17.17,0,0,1,.07.15c-.08.61-.66.88-1,1.29A1.58,1.58,0,0,1,66.14,21.29Z"/><path class="cls-14" d="M71.39,19.16l-1.75.71a1,1,0,0,1,.46-1.18,1.85,1.85,0,0,1,.94-.25C71.38,18.46,71.29,18.9,71.39,19.16Z"/><path class="cls-95" d="M67.14,19.75c-.12,0-.28.11-.36.07a.29.29,0,0,1-.11-.3c.14-.43.26,0,.39-.06S67.23,19.6,67.14,19.75Z"/><path class="cls-96" d="M44.45,16.87a8.2,8.2,0,0,1,.93,2.4c0,.3.4.05.62-.12h0c.37,0,.34.4.55.56a1.22,1.22,0,0,0,.35.24C48,19.89,48,21.3,49,21.39a.57.57,0,0,1,.12.45,3.29,3.29,0,0,1-2.77.26c-.21.06-.29,0-.24-.23-.43-.43-.89-.48-1.43.23a.42.42,0,0,1-.35.1.27.27,0,0,1-.09-.29c.07-.18.22-.35.31-.54s.3-.53,0-.61-.28.25-.42.38a1.7,1.7,0,0,1-2.05.24,11.91,11.91,0,0,1-.93-1c.2-.46,0-1,.5-1.4h0a1.87,1.87,0,0,1,.11-.74c.13-.22.43-.36.64-.56s.31-.71.72-.7c.23,0,.4.2.6.3C44.14,17.55,44.26,17.13,44.45,16.87Z"/><path class="cls-46" d="M41.14,23c0,.11.11.27.06.33s-.39.23-.51.09a.34.34,0,0,1,.13-.51C40.89,22.89,41,23,41.14,23Z"/><path class="cls-46" d="M46.12,21.86l.24.23-.09.56C45.53,22.67,46,22.18,46.12,21.86Z"/><path class="cls-97" d="M69.73,34.77l-.32.29h0a.68.68,0,0,1-.12.71c-.26.26-.47.06-.69,0s-.42-.33-.5-.62-.3-.3-.59-.21c-.47.12-1,.63-1.35.05-.14-.24-.37-.53-.68-.46-2.78.6-3.5-1.69-5.12-2.71l-.12-.12-.11-.12c.1-.27.12-.61-.11-.64-.93-.11-1.41-.79-2.08-1.22a3.36,3.36,0,0,0-1.5-.76c.42-.41,1.11-.53,1.28-1.2l.21-.13a1.2,1.2,0,0,1,.45-.05l.2.07a1.24,1.24,0,0,1,.3.26l.26.3c.42.35,1,.16,1.55.08a2.63,2.63,0,0,1,.52,0,1.8,1.8,0,0,1,.49.11c.4.22,1.12.37,1,.85-.43,1.33.64,1.14,1.25,1.31,1.12.31,2.55.09,3,1.36,2.1-.94,2,1.2,3.11,1.67C70.67,34,70.29,34.39,69.73,34.77Z"/><path class="cls-49" d="M57,30.83c-.17-.22-.44-.36-.4-.71a.47.47,0,0,1,.24-.27.29.29,0,0,1,.3.08,1,1,0,0,1-.14.91Z"/><path class="cls-98" d="M49.13,21.84l-.24-.25c1.33-1.83,1.59-1.93,2.62-1.06a2.7,2.7,0,0,0,2.29.8,2.16,2.16,0,0,1,.57,0c.27.06.31.29.22.58h0c.33.18.13,1.11,1,.52.07,0,.3,0,.3,0,0,1.22.88.48,1.58.35-.73.69-.13,1.2-.31,1.82-.2.45-.45.91.34.78.43-.07.59.26.82.47-.35.18-.74-.08-1.08.39s-1,.49-1.45.47-.47-.27-.09-.88a.65.65,0,0,0,.14-.35.25.25,0,0,0-.25-.16c-.26,0-.52.16-.78.23-1,.26-1,.26-1.43-.66-.23-.48-.53-.85-1.28-.35-.19.13-.37,0-.43-.19-.17-.44-.69-.07-1-.19a.67.67,0,0,0-.79-.2c-.17-.39.15-.87.12-1.29-.42,0-.84.61-1.26.3C48.73,22.56,49.24,22.23,49.13,21.84Z"/><path class="cls-99" d="M58.75,28.23,58.52,28c0-.19,0-.27-.23-.25h0a4.16,4.16,0,0,0-.55.05h0c-.27-.36-.21-.73.22-1.13l.6-.58a.3.3,0,0,1,.16-.26q.14-.07.17,0h0c.18,0,.37,0,.55,0A1.72,1.72,0,0,0,60,25.6c.45-.28.54-.16.52.26s.7.19.64.35c-.26.7-.11.63.51.41s.79.07,1.06.74a10.86,10.86,0,0,0,1.17,2.22.94.94,0,0,0,1.23.09c.66-.38,1.12-.18,1.21.32.19,1,1.22.95,1.92,1.17a1.58,1.58,0,0,1,1.1.75c.18.32.42.64.64.95.33.47.43-.18.63-.36s.23-.59.42-.86.7-.27.85,0-.07.61-.33.88L71.1,33a1.11,1.11,0,0,1-1,.9c-.67.08-1.19.07-1.3-.73s-.22-.86-1.23-1.17c-.41.29.05.75-.51,1.06a6.41,6.41,0,0,0-.86-1.4,1.25,1.25,0,0,0-1.44-.43,1.89,1.89,0,0,1-1.43-.2c-.24-.1-.18-.59-.66-.38-.32.15-.36.62-.76.68-.25-.31.17-.57.25-.86.21-.71.34-1.39-.58-1.5-.11,0-.13-.31-.19-.47C60.78,27.74,59.34,29.19,58.75,28.23Z"/><path class="cls-98" d="M58.87,25.77l-.32.3-.23-.25Z"/><path class="cls-69" d="M60.37,31.85c.18-.07.5-.24.52-.21.54,1,1.62,1.49,2.3,2.35a.81.81,0,0,0,.95.27l1.55-.34c.45-.09.77.05.77.49,0,.73.57.57,1.06.55-.36.33-.7.74-1.2.66a.69.69,0,0,0-.64.61h0c-.39.15-.88.36-.89-.17s-.27-.74-.8-.6-1,.35-1.55.53a7.74,7.74,0,0,1,.27-.73c.12-.26.27-.53.09-.7a13.55,13.55,0,0,0-1.38-1.12c-.06,0-.34.18-.52.27a.9.9,0,0,1-.94-1q0-.22.12-.29t.19,0Z"/><path class="cls-50" d="M60.26,32.41l-.31.31-.15-.47C60,32.15,60.14,32.3,60.26,32.41Z"/><path class="cls-100" d="M53.74,15.16a4,4,0,0,0-.1.56c0,.42-.24.6-.62.56a1.94,1.94,0,0,0-1.12.14l-.55.06a.33.33,0,0,1-.16.25q-.13.07-.16,0c-.38-.11-.66-.25-.23-.79.18-.22.23-.62-.16-.43-.74.35-.68-.12-.5-.46.29-.58.58-1.09.15-1.54-.07-.07-.05-.23-.05-.36a1.16,1.16,0,0,1,.39-.72l.24.24c.2.2.47.43.8.23.53-.33.05-.51,0-.73a.5.5,0,0,1,.19-.67c.44-.29,1.16-.25,1.18.05s0,.86,0,1.37c.58-.08,1-.53,1.44-.76s.86-.5,1.29-.75c-.06.6-.2,1.14-1,1.34a1.28,1.28,0,0,0-.32.22c.53.7-.58,1.18-.69,1.79A1.24,1.24,0,0,0,53.74,15.16Z"/><path class="cls-100" d="M51.51,20.52a.87.87,0,0,0-1.45.15c-.33.43-.82.55-1.17.91-.84.18-1.47.16-1.39-.9.05-.7-.78-.26-1.12-.49q.06-.29-.23-.25L46,19.15c.12,0,.27-.07.36,0,.3.11.73.46.84.36.39-.33.93-.55,1.1-1.1.28-.32.55-.81.85-.91a3.6,3.6,0,0,1,1.47,0c.12,0,.15.28.22.44.18.35.82.18.91.65-.41.43-.86.18-1.28.41a.74.74,0,0,0-.31.26c-.09.23.07.37.26.32.5-.13.8.17,1.23.18.23,0,.57-.16.56.19S51.79,20.35,51.51,20.52Z"/><path class="cls-94" d="M51,16.78l.32-.3a.22.22,0,0,1-.14.31A.43.43,0,0,1,51,16.78Z"/><polygon class="cls-100" points="50.62 12.48 50.59 12.31 50.7 12.3 50.62 12.48"/><path class="cls-60" d="M52.45,6.08c.06.15.19.29.17.46a1.09,1.09,0,0,1-.28.5.48.48,0,0,1-.3.05,1.12,1.12,0,0,1,0-.51,2.57,2.57,0,0,1,.37-.49Z"/><path class="cls-60" d="M51.58,6.26c-.12.05-.27.17-.34.14s-.06-.19-.09-.3.27-.17.34-.14S51.55,6.15,51.58,6.26Z"/><path class="cls-52" d="M50.35,3.83c-.06,0-.17.08-.18.07s0-.13.18-.06Z"/><polygon class="cls-60" points="48.72 2.1 48.74 2.27 48.64 2.28 48.72 2.1"/><path class="cls-74" d="M56.72,11.89c-.3.13-.38,0-.23-.25Z"/><path class="cls-101" d="M64.33,20.65a4.62,4.62,0,0,0-.58.64c-.17.27-.19.54.25.36.2-.08.37-.16.41.07s-.31.52-.53.57c-.56.13-.71-.6-1.34-.3-.44.21-.8.65-1.29.69a2,2,0,0,1-.38,0c-.11,0-.26,0-.29-.12s.12-.36.27-.52l.31-.3.32-.3a4,4,0,0,1,2.07-1Z"/><path class="cls-102" d="M53.68,19c-.29-.58-1.19-.46-1.47-1.08.58-.53,1.18-.24,1.73-.57l.47.49A3.62,3.62,0,0,0,53.68,19Z"/><path class="cls-94" d="M63.55,20.45a5.22,5.22,0,0,1-2.07,1c0-.35-.16-.81.48-.84s.87-.52,1.34-.53C63.53,20.1,63.61,20.22,63.55,20.45Z"/><path class="cls-94" d="M62.51,18.74l-.25-.14a2.34,2.34,0,0,1,.3-.21s.12,0,.14.07S62.69,18.7,62.51,18.74Z"/><path class="cls-94" d="M55,17.75a1,1,0,0,1-.4.85A1,1,0,0,1,55,17.75Z"/><path class="cls-94" d="M54.56,18.6l.23.24C54.52,18.94,54.45,18.86,54.56,18.6Z"/><path class="cls-100" d="M55.63,15.25a1.63,1.63,0,0,0-1.09.08.74.74,0,0,1-.81-.17,2.81,2.81,0,0,1,1-.71C55.32,14.28,55.54,14.47,55.63,15.25Z"/><path class="cls-100" d="M54.35,16.46c0-.38.21-.59.57-.76a6.54,6.54,0,0,0,.72-.45C55.64,16.11,54.89,16.18,54.35,16.46Z"/><path class="cls-103" d="M70,15.76a4.21,4.21,0,0,0-1.5-1.07c-.19-.11-.23-.4,0-.67s.49-.71.78-.51,1,.14,1.35.38.47.72,0,1.26a8,8,0,0,1-.62.61Z"/><path class="cls-104" d="M73.75,35.86c-1,.21-1.26-.27-.92-1.67a.44.44,0,0,1,.61.18c.16.25.38.25.47-.12s.07-.88.54-.93a3.43,3.43,0,0,0,1.24-.18.4.4,0,0,1,.53.32"/><path class="cls-105" d="M75,36.63a2.41,2.41,0,0,1-.48.41c-.25.16-.52,0-.42-.28s.35-.49.17-.7-.47.05-.71.15c-.57.21-1.15.16-1.31-.27-.26-.73-.88-.81-1.57-.85a1.49,1.49,0,0,1-1-.32.37.37,0,0,1,.2-.43.37.37,0,0,0,.21-.43l1-.9,1.67-.38c.43.42,0,1,.06,1.57-.22.76.44,1,.6,1.56l1.94-.95"/><path class="cls-79" d="M65.67,36.23c0-.45.18-.66.64-.61Z"/><path class="cls-60" d="M43.19,4.34c.06,0,.17-.06.17,0a.65.65,0,0,1,.08.3c0,.22-.09.24-.17.06S43.22,4.44,43.19,4.34Z"/><path class="cls-60" d="M43.09,13.47c0-.45.18-.66.64-.61Z"/><path class="cls-60" d="M43,14l-.24-.25.32-.3Z"/><path class="cls-105" d="M71,31.64c.3.62.26.7-.42.86C70.33,31.89,70.37,31.82,71,31.64Z"/><path class="cls-98" d="M59.43,25.72l-.55,0Z"/><path class="cls-66" d="M64.14,23.82l.11-.16s.12,0,.12.06C64.3,23.9,64.22,23.93,64.14,23.82Z"/><path class="cls-66" d="M64.36,18.75l.23.25C64.3,19.12,64.22,19,64.36,18.75Z"/><path class="cls-66" d="M64.6,19l.55-.05Z"/><path class="cls-66" d="M65.15,18.94l.55,0Z"/><path class="cls-82" d="M41.65,19c.06,0,.17-.08.18-.06s0,.13-.18.06Z"/><path class="cls-82" d="M46.15,19.95q.39-.13.23.25l-.12-.12Z"/><path class="cls-70" d="M58.75,28.23a6.36,6.36,0,0,0,2.08-.41c.57-.26.76.14.61.69l-.55.05a2.35,2.35,0,0,1-2,.26C58.69,28.72,58.66,28.5,58.75,28.23Z"/><path class="cls-81" d="M69.41,35.06a1.49,1.49,0,0,1-.36.06c-.15,0-.17-.13-.06-.26s.12,0,.17,0a2.32,2.32,0,0,1,.25.2Z"/><path class="cls-99" d="M67.83,33.56s-.05-.11,0-.13.23-.13.2,0S67.89,33.53,67.83,33.56Z"/><path class="cls-70" d="M57.74,27.78l.55-.05Z"/><path class="cls-70" d="M58.29,27.73c.3-.13.37,0,.23.25Z"/><path class="cls-94" d="M54.58,21.85c-.06,0-.17.08-.18.07s0-.13.18-.06Z"/><path class="cls-99" d="M60.89,28.56c0-.06,0-.16,0-.17S61,28.38,60.89,28.56Z"/></g></g></g></g></g></svg>